<svg width="16" height="16" fill="none" xmlns="http://www.w3.org/2000/svg"><path d="M7.734.043a.982.982 0 0 0-.638.542l-.069.148-.014 3.134L7 7l-3.133.013-3.134.014-.153.071a1.11 1.11 0 0 0-.469.453.994.994 0 0 0 .443 1.335l.178.087 3.134.014L7 9l.013 3.134.014 3.134.087.178c.359.728 1.413.728 1.772 0l.087-.178.014-3.134L9 9l3.134-.013 3.134-.014.178-.087a.994.994 0 0 0 .443-1.335 1.11 1.11 0 0 0-.469-.453l-.153-.071-3.134-.014L9 7l-.013-3.133L8.973.733 8.904.585a.976.976 0 0 0-.65-.544.903.903 0 0 0-.52.002" fill="#000" fill-rule="evenodd"/></svg>