<svg width="40" height="40" viewBox="0 0 40 40" fill="none" xmlns="http://www.w3.org/2000/svg">
<circle cx="20" cy="20" r="20" fill="#FF5656" fill-opacity="0.2"/>
<path d="M19.9998 29.2496C21.0945 29.2496 21.9822 30.1374 21.9822 31.2321C21.9822 32.3268 21.0945 33.2145 19.9998 33.2145C18.9051 33.2144 18.0174 32.3267 18.0174 31.2321C18.0175 30.1374 18.9052 29.2497 19.9998 29.2496ZM19.9998 6.78577C21.7686 6.78577 23.1504 8.3129 22.9744 10.0729L21.4529 25.2926C21.3782 26.0389 20.7499 26.6071 19.9998 26.6071C19.2498 26.607 18.6214 26.0389 18.5467 25.2926L17.0252 10.0729C16.8492 8.31294 18.2311 6.78583 19.9998 6.78577Z" fill="#FF5656"/>
</svg>
