<svg width="41" height="40" viewBox="0 0 41 40" fill="none" xmlns="http://www.w3.org/2000/svg">
<circle cx="20.5" cy="20" r="20" fill="#FF5656" fill-opacity="0.2"/>
<path d="M20.5005 29.2495C21.595 29.2497 22.4819 30.1374 22.4819 31.2319C22.4819 32.3265 21.595 33.2141 20.5005 33.2144C19.4058 33.2144 18.5181 32.3266 18.5181 31.2319C18.5181 30.1373 19.4058 29.2495 20.5005 29.2495ZM20.5005 6.78564C22.269 6.78587 23.651 8.31293 23.4751 10.0728L21.9526 25.2925C21.8779 26.0386 21.2504 26.6067 20.5005 26.6069C19.7504 26.6069 19.1221 26.0388 19.0474 25.2925L17.5249 10.0728C17.349 8.31281 18.7318 6.78564 20.5005 6.78564Z" fill="#FF5656"/>
</svg>
