<svg width="281" height="281" viewBox="0 0 281 281" fill="none" xmlns="http://www.w3.org/2000/svg">
<rect x="1.3381" y="1.3381" width="278.324" height="278.324" rx="78.9476" fill="#1D1E27"/>
<rect x="1.3381" y="1.3381" width="278.324" height="278.324" rx="78.9476" stroke="black" stroke-width="2.67619"/>
<path d="M225.375 0H55.6253C24.9043 0 0 24.9043 0 55.6253V225.375C0 256.096 24.9043 281 55.6253 281H225.375C256.096 281 281 256.096 281 225.375V55.6253C281 24.9043 256.096 0 225.375 0Z" fill="#1D1E27"/>
<path d="M119.86 51.2731C128.111 51.2731 134.812 57.9624 134.812 66.2257V119.848C134.812 128.099 128.123 134.8 119.86 134.8H66.2376C57.9863 134.8 51.285 128.111 51.285 119.848C51.285 111.596 57.9743 104.895 66.2376 104.895H83.7778L59.5483 80.6656C53.956 75.0733 53.956 65.9992 59.5483 60.4068L60.4307 59.5245C63.2328 56.7223 66.8935 55.3272 70.566 55.3272C74.2386 55.3272 77.8993 56.7223 80.7014 59.5245L104.931 83.7539V66.2257C104.931 57.9743 111.62 51.2731 119.884 51.2731M119.86 39.3491C108.389 39.3491 98.5754 46.575 94.724 56.7104L89.1078 51.0942C84.1474 46.1339 77.5535 43.4033 70.5422 43.4033C63.5309 43.4033 56.937 46.1339 51.9766 51.0942L51.0942 51.9766C40.8635 62.2074 40.8635 78.8651 51.0942 89.0959L56.7104 94.7121C46.575 98.5635 39.3491 108.377 39.3491 119.848C39.3491 134.669 51.4042 146.724 66.2257 146.724H119.848C134.669 146.724 146.724 134.669 146.724 119.848V66.2257C146.724 51.4042 134.669 39.3491 119.848 39.3491H119.86Z" fill="white"/>
<path d="M215.299 146.712C223.55 146.712 230.252 153.402 230.252 161.665C230.252 169.928 223.562 176.618 215.299 176.618H197.759L221.988 200.847C227.581 206.44 227.581 215.514 221.988 221.106L221.106 221.988C218.304 224.791 214.643 226.186 210.971 226.186C207.298 226.186 203.637 224.791 200.835 221.988L176.606 197.759V215.287C176.606 223.539 169.916 230.24 161.653 230.24C153.39 230.24 146.7 223.55 146.7 215.287V161.665C146.7 153.414 153.39 146.712 161.653 146.712H215.275M215.299 134.789H161.677C146.855 134.789 134.8 146.844 134.8 161.665V215.287C134.8 230.109 146.855 242.164 161.677 242.164C173.148 242.164 182.961 234.938 186.813 224.803L192.429 230.407C197.389 235.367 203.983 238.098 210.994 238.098C218.006 238.098 224.6 235.367 229.56 230.407L230.442 229.524C235.403 224.564 238.133 217.97 238.133 210.959C238.133 203.948 235.403 197.354 230.442 192.393L224.826 186.789C234.962 182.937 242.187 173.124 242.187 161.653C242.187 146.832 230.132 134.777 215.311 134.777L215.299 134.789Z" fill="#FFC300"/>
</svg>
