<svg width="211" height="32" viewBox="0 0 211 32" fill="none" xmlns="http://www.w3.org/2000/svg">
<g filter="url(#filter0_d_8957_9498)">
<path d="M200.576 29.1799V14.6666C200.576 13.1004 200.205 11.8475 199.465 10.9078C198.725 9.93327 197.715 9.44601 196.436 9.44601C195.157 9.44601 194.148 9.93327 193.407 10.9078C192.667 11.8475 192.297 13.1004 192.297 14.6666V29.1799H183.261V14.6666C183.261 13.1004 182.874 11.8475 182.1 10.9078C181.326 9.93327 180.333 9.44601 179.121 9.44601C177.842 9.44601 176.833 9.93327 176.092 10.9078C175.352 11.8475 174.982 13.1004 174.982 14.6666V29.1799H165.744V2.03277H174.881V4.85189C175.554 3.66855 176.496 2.72885 177.708 2.03277C178.953 1.33669 180.434 0.988647 182.15 0.988647C183.833 0.988647 185.347 1.31929 186.693 1.98056C188.039 2.64184 189.15 3.63375 190.025 4.9563C190.799 3.77296 191.826 2.81586 193.104 2.08497C194.383 1.35409 195.83 0.988647 197.446 0.988647C201.451 0.988647 204.513 2.08497 206.633 4.27762C208.753 6.47027 209.814 9.63743 209.814 13.7791V29.1799H200.576Z" fill="#FFC300"/>
</g>
<g filter="url(#filter1_d_8957_9498)">
<path d="M130.96 15.6063C130.96 13.4137 131.347 11.4298 132.121 9.65484C132.895 7.84503 133.955 6.29625 135.301 5.00851C136.681 3.72076 138.297 2.72885 140.147 2.03277C141.998 1.33669 144.018 0.988647 146.205 0.988647C148.393 0.988647 150.412 1.33669 152.263 2.03277C154.114 2.72885 155.712 3.72076 157.059 5.00851C158.438 6.29625 159.515 7.84503 160.289 9.65484C161.063 11.4298 161.45 13.4137 161.45 15.6063C161.45 17.799 161.063 19.8002 160.289 21.61C159.515 23.385 158.438 24.9164 157.059 26.2041C155.712 27.4919 154.114 28.4838 152.263 29.1799C150.412 29.8759 148.393 30.224 146.205 30.224C144.018 30.224 141.998 29.8759 140.147 29.1799C138.297 28.4838 136.681 27.4919 135.301 26.2041C133.955 24.9164 132.895 23.385 132.121 21.61C131.347 19.8002 130.96 17.799 130.96 15.6063ZM140.45 15.6063C140.45 17.4857 140.972 19.0345 142.015 20.2526C143.092 21.4708 144.489 22.0798 146.205 22.0798C147.922 22.0798 149.301 21.4708 150.345 20.2526C151.422 19.0345 151.96 17.4857 151.96 15.6063C151.96 13.7269 151.422 12.1781 150.345 10.96C149.301 9.74184 147.922 9.13277 146.205 9.13277C144.489 9.13277 143.092 9.74184 142.015 10.96C140.972 12.1781 140.45 13.7269 140.45 15.6063Z" fill="#FFC300"/>
</g>
<g filter="url(#filter2_d_8957_9498)">
<path d="M128.309 11.7953C127.535 11.2732 126.694 10.873 125.785 10.5945C124.876 10.2813 123.917 10.1247 122.908 10.1247C121.36 10.1247 120.047 10.7164 118.97 11.8997C117.927 13.083 117.405 14.7536 117.405 16.9115V29.1799H107.915V2.03277H117.405V6.57468C118.045 4.69527 119.004 3.30311 120.283 2.39821C121.595 1.4585 123.059 0.988647 124.675 0.988647C125.785 0.988647 126.879 1.12786 127.956 1.40629C129.066 1.64992 130.11 2.01536 131.086 2.50262L128.309 11.7953Z" fill="#FFC300"/>
</g>
<g filter="url(#filter3_d_8957_9498)">
<path d="M93.6494 29.1799V14.6666C93.6494 13.1004 93.2792 11.8475 92.5389 10.9078C91.7985 9.93327 90.7888 9.44601 89.51 9.44601C88.2311 9.44601 87.2215 9.93327 86.4811 10.9078C85.7408 11.8475 85.3706 13.1004 85.3706 14.6666V29.1799H76.3345V14.6666C76.3345 13.1004 75.9475 11.8475 75.1734 10.9078C74.3994 9.93327 73.4066 9.44601 72.1951 9.44601C70.9162 9.44601 69.9066 9.93327 69.1662 10.9078C68.4258 11.8475 68.0556 13.1004 68.0556 14.6666V29.1799H58.8176V2.03277H67.9547V4.85189C68.6277 3.66855 69.5701 2.72885 70.7816 2.03277C72.0268 1.33669 73.5076 0.988647 75.2239 0.988647C76.9066 0.988647 78.421 1.31929 79.7672 1.98056C81.1133 2.64184 82.2239 3.63375 83.0989 4.9563C83.873 3.77296 84.8994 2.81586 86.1783 2.08497C87.4571 1.35409 88.9042 0.988647 90.5196 0.988647C94.5244 0.988647 97.5869 2.08497 99.7071 4.27762C101.827 6.47027 102.887 9.63743 102.887 13.7791V29.1799H93.6494Z" fill="#FFC300"/>
</g>
<g filter="url(#filter4_d_8957_9498)">
<path d="M24.031 15.6063C24.031 13.4137 24.418 11.4298 25.1921 9.65484C25.9661 7.84503 27.0262 6.29625 28.3724 5.00851C29.7522 3.72076 31.3676 2.72885 33.2185 2.03277C35.0695 1.33669 37.0887 0.988647 39.2762 0.988647C41.4637 0.988647 43.483 1.33669 45.3339 2.03277C47.1849 2.72885 48.7835 3.72076 50.1296 5.00851C51.5094 6.29625 52.5864 7.84503 53.3604 9.65484C54.1344 11.4298 54.5215 13.4137 54.5215 15.6063C54.5215 17.799 54.1344 19.8002 53.3604 21.61C52.5864 23.385 51.5094 24.9164 50.1296 26.2041C48.7835 27.4919 47.1849 28.4838 45.3339 29.1799C43.483 29.8759 41.4637 30.224 39.2762 30.224C37.0887 30.224 35.0695 29.8759 33.2185 29.1799C31.3676 28.4838 29.7522 27.4919 28.3724 26.2041C27.0262 24.9164 25.9661 23.385 25.1921 21.61C24.418 19.8002 24.031 17.799 24.031 15.6063ZM33.5214 15.6063C33.5214 17.4857 34.043 19.0345 35.0863 20.2526C36.1632 21.4708 37.5599 22.0798 39.2762 22.0798C40.9926 22.0798 42.3724 21.4708 43.4157 20.2526C44.4926 19.0345 45.0311 17.4857 45.0311 15.6063C45.0311 13.7269 44.4926 12.1781 43.4157 10.96C42.3724 9.74184 40.9926 9.13277 39.2762 9.13277C37.5599 9.13277 36.1632 9.74184 35.0863 10.96C34.043 12.1781 33.5214 13.7269 33.5214 15.6063Z" fill="#FFC300"/>
</g>
<g filter="url(#filter5_d_8957_9498)">
<path d="M21.3829 11.7953C20.6089 11.2732 19.7675 10.873 18.8589 10.5945C17.9502 10.2813 16.9911 10.1247 15.9815 10.1247C14.4334 10.1247 13.1209 10.7164 12.044 11.8997C11.0007 13.083 10.4791 14.7536 10.4791 16.9115V29.1799H0.988647V2.03277H10.4791V6.57468C11.1185 4.69527 12.0776 3.30311 13.3565 2.39821C14.669 1.4585 16.1329 0.988647 17.7483 0.988647C18.8589 0.988647 19.9526 1.12786 21.0296 1.40629C22.1401 1.64992 23.1834 2.01536 24.1594 2.50262L21.3829 11.7953Z" fill="#FFC300"/>
</g>
<defs>
<filter id="filter0_d_8957_9498" x="164.755" y="2.563e-06" width="46.0471" height="30.1685" filterUnits="userSpaceOnUse" color-interpolation-filters="sRGB">
<feFlood flood-opacity="0" result="BackgroundImageFix"/>
<feColorMatrix in="SourceAlpha" type="matrix" values="0 0 0 0 0 0 0 0 0 0 0 0 0 0 0 0 0 0 127 0" result="hardAlpha"/>
<feOffset/>
<feGaussianBlur stdDeviation="0.494322"/>
<feComposite in2="hardAlpha" operator="out"/>
<feColorMatrix type="matrix" values="0 0 0 0 1 0 0 0 0 0.764706 0 0 0 0 0 0 0 0 1 0"/>
<feBlend mode="normal" in2="BackgroundImageFix" result="effect1_dropShadow_8957_9498"/>
<feBlend mode="normal" in="SourceGraphic" in2="effect1_dropShadow_8957_9498" result="shape"/>
</filter>
<filter id="filter1_d_8957_9498" x="129.971" y="2.563e-06" width="32.4678" height="31.2126" filterUnits="userSpaceOnUse" color-interpolation-filters="sRGB">
<feFlood flood-opacity="0" result="BackgroundImageFix"/>
<feColorMatrix in="SourceAlpha" type="matrix" values="0 0 0 0 0 0 0 0 0 0 0 0 0 0 0 0 0 0 127 0" result="hardAlpha"/>
<feOffset/>
<feGaussianBlur stdDeviation="0.494322"/>
<feComposite in2="hardAlpha" operator="out"/>
<feColorMatrix type="matrix" values="0 0 0 0 1 0 0 0 0 0.764706 0 0 0 0 0 0 0 0 1 0"/>
<feBlend mode="normal" in2="BackgroundImageFix" result="effect1_dropShadow_8957_9498"/>
<feBlend mode="normal" in="SourceGraphic" in2="effect1_dropShadow_8957_9498" result="shape"/>
</filter>
<filter id="filter2_d_8957_9498" x="106.926" y="2.563e-06" width="25.1481" height="30.1685" filterUnits="userSpaceOnUse" color-interpolation-filters="sRGB">
<feFlood flood-opacity="0" result="BackgroundImageFix"/>
<feColorMatrix in="SourceAlpha" type="matrix" values="0 0 0 0 0 0 0 0 0 0 0 0 0 0 0 0 0 0 127 0" result="hardAlpha"/>
<feOffset/>
<feGaussianBlur stdDeviation="0.494322"/>
<feComposite in2="hardAlpha" operator="out"/>
<feColorMatrix type="matrix" values="0 0 0 0 1 0 0 0 0 0.764706 0 0 0 0 0 0 0 0 1 0"/>
<feBlend mode="normal" in2="BackgroundImageFix" result="effect1_dropShadow_8957_9498"/>
<feBlend mode="normal" in="SourceGraphic" in2="effect1_dropShadow_8957_9498" result="shape"/>
</filter>
<filter id="filter3_d_8957_9498" x="57.829" y="2.563e-06" width="46.0471" height="30.1685" filterUnits="userSpaceOnUse" color-interpolation-filters="sRGB">
<feFlood flood-opacity="0" result="BackgroundImageFix"/>
<feColorMatrix in="SourceAlpha" type="matrix" values="0 0 0 0 0 0 0 0 0 0 0 0 0 0 0 0 0 0 127 0" result="hardAlpha"/>
<feOffset/>
<feGaussianBlur stdDeviation="0.494322"/>
<feComposite in2="hardAlpha" operator="out"/>
<feColorMatrix type="matrix" values="0 0 0 0 1 0 0 0 0 0.764706 0 0 0 0 0 0 0 0 1 0"/>
<feBlend mode="normal" in2="BackgroundImageFix" result="effect1_dropShadow_8957_9498"/>
<feBlend mode="normal" in="SourceGraphic" in2="effect1_dropShadow_8957_9498" result="shape"/>
</filter>
<filter id="filter4_d_8957_9498" x="23.0424" y="2.563e-06" width="32.4678" height="31.2126" filterUnits="userSpaceOnUse" color-interpolation-filters="sRGB">
<feFlood flood-opacity="0" result="BackgroundImageFix"/>
<feColorMatrix in="SourceAlpha" type="matrix" values="0 0 0 0 0 0 0 0 0 0 0 0 0 0 0 0 0 0 127 0" result="hardAlpha"/>
<feOffset/>
<feGaussianBlur stdDeviation="0.494322"/>
<feComposite in2="hardAlpha" operator="out"/>
<feColorMatrix type="matrix" values="0 0 0 0 1 0 0 0 0 0.764706 0 0 0 0 0 0 0 0 1 0"/>
<feBlend mode="normal" in2="BackgroundImageFix" result="effect1_dropShadow_8957_9498"/>
<feBlend mode="normal" in="SourceGraphic" in2="effect1_dropShadow_8957_9498" result="shape"/>
</filter>
<filter id="filter5_d_8957_9498" x="2.563e-06" y="2.563e-06" width="25.1481" height="30.1685" filterUnits="userSpaceOnUse" color-interpolation-filters="sRGB">
<feFlood flood-opacity="0" result="BackgroundImageFix"/>
<feColorMatrix in="SourceAlpha" type="matrix" values="0 0 0 0 0 0 0 0 0 0 0 0 0 0 0 0 0 0 127 0" result="hardAlpha"/>
<feOffset/>
<feGaussianBlur stdDeviation="0.494322"/>
<feComposite in2="hardAlpha" operator="out"/>
<feColorMatrix type="matrix" values="0 0 0 0 1 0 0 0 0 0.764706 0 0 0 0 0 0 0 0 1 0"/>
<feBlend mode="normal" in2="BackgroundImageFix" result="effect1_dropShadow_8957_9498"/>
<feBlend mode="normal" in="SourceGraphic" in2="effect1_dropShadow_8957_9498" result="shape"/>
</filter>
</defs>
</svg>
