<svg width="133" height="20" viewBox="0 0 133 20" fill="none" xmlns="http://www.w3.org/2000/svg">
<path d="M127.483 16.7656V9.53154C127.483 8.75089 127.298 8.12637 126.929 7.65798C126.56 7.17225 126.057 6.92938 125.419 6.92938C124.782 6.92938 124.279 7.17225 123.91 7.65798C123.541 8.12637 123.356 8.75089 123.356 9.53154V16.7656H118.852V9.53154C118.852 8.75089 118.659 8.12637 118.273 7.65798C117.888 7.17225 117.393 6.92938 116.789 6.92938C116.151 6.92938 115.648 7.17225 115.279 7.65798C114.91 8.12637 114.726 8.75089 114.726 9.53154V16.7656H110.121V3.2343H114.675V4.63947C115.011 4.04965 115.48 3.58126 116.084 3.2343C116.705 2.88735 117.443 2.71387 118.299 2.71387C119.137 2.71387 119.892 2.87867 120.563 3.20828C121.234 3.53789 121.788 4.0323 122.224 4.69151C122.61 4.10169 123.121 3.62463 123.759 3.26032C124.396 2.89602 125.117 2.71387 125.923 2.71387C127.919 2.71387 129.445 3.26032 130.502 4.35323C131.559 5.44614 132.087 7.02479 132.087 9.08917V16.7656H127.483Z" fill="#1D1E27"/>
<path d="M92.7832 9.99993C92.7832 8.90702 92.9761 7.9182 93.3619 7.03346C93.7477 6.13138 94.2761 5.3594 94.9471 4.71754C95.6349 4.07567 96.4401 3.58126 97.3627 3.2343C98.2853 2.88735 99.2917 2.71387 100.382 2.71387C101.472 2.71387 102.479 2.88735 103.401 3.2343C104.324 3.58126 105.121 4.07567 105.792 4.71754C106.48 5.3594 107.016 6.13138 107.402 7.03346C107.788 7.9182 107.981 8.90702 107.981 9.99993C107.981 11.0928 107.788 12.0903 107.402 12.9924C107.016 13.8772 106.48 14.6405 105.792 15.2823C105.121 15.9242 104.324 16.4186 103.401 16.7656C102.479 17.1125 101.472 17.286 100.382 17.286C99.2917 17.286 98.2853 17.1125 97.3627 16.7656C96.4401 16.4186 95.6349 15.9242 94.9471 15.2823C94.2761 14.6405 93.7477 13.8772 93.3619 12.9924C92.9761 12.0903 92.7832 11.0928 92.7832 9.99993ZM97.5136 9.99993C97.5136 10.9367 97.7736 11.7087 98.2936 12.3159C98.8304 12.923 99.5266 13.2266 100.382 13.2266C101.238 13.2266 101.925 12.923 102.445 12.3159C102.982 11.7087 103.251 10.9367 103.251 9.99993C103.251 9.06315 102.982 8.29118 102.445 7.684C101.925 7.07683 101.238 6.77325 100.382 6.77325C99.5266 6.77325 98.8304 7.07683 98.2936 7.684C97.7736 8.29118 97.5136 9.06315 97.5136 9.99993Z" fill="#1D1E27"/>
<path d="M91.4619 8.10035C91.0761 7.84014 90.6567 7.64064 90.2038 7.50185C89.7509 7.34572 89.2728 7.26766 88.7696 7.26766C87.9979 7.26766 87.3437 7.56257 86.8069 8.15239C86.2869 8.74222 86.0269 9.57491 86.0269 10.6505V16.7656H81.2965V3.2343H86.0269V5.49818C86.3456 4.56141 86.8237 3.86749 87.4612 3.41645C88.1154 2.94806 88.8451 2.71387 89.6502 2.71387C90.2038 2.71387 90.749 2.78326 91.2857 2.92204C91.8393 3.04347 92.3593 3.22563 92.8458 3.4685L91.4619 8.10035Z" fill="#1D1E27"/>
<path d="M74.186 16.7656V9.53154C74.186 8.75089 74.0015 8.12637 73.6324 7.65798C73.2634 7.17225 72.7602 6.92938 72.1227 6.92938C71.4853 6.92938 70.9821 7.17225 70.613 7.65798C70.244 8.12637 70.0595 8.75089 70.0595 9.53154V16.7656H65.5555V9.53154C65.5555 8.75089 65.3626 8.12637 64.9768 7.65798C64.591 7.17225 64.0961 6.92938 63.4922 6.92938C62.8548 6.92938 62.3516 7.17225 61.9825 7.65798C61.6135 8.12637 61.429 8.75089 61.429 9.53154V16.7656H56.8243V3.2343H61.3786V4.63947C61.7141 4.04965 62.1838 3.58126 62.7877 3.2343C63.4083 2.88735 64.1464 2.71387 65.0019 2.71387C65.8407 2.71387 66.5955 2.87867 67.2665 3.20828C67.9375 3.53789 68.491 4.0323 68.9272 4.69151C69.313 4.10169 69.8246 3.62463 70.462 3.26032C71.0995 2.89602 71.8208 2.71387 72.626 2.71387C74.6221 2.71387 76.1486 3.26032 77.2054 4.35323C78.2622 5.44614 78.7906 7.02479 78.7906 9.08917V16.7656H74.186Z" fill="#1D1E27"/>
<path d="M39.4852 9.99993C39.4852 8.90702 39.6781 7.9182 40.064 7.03346C40.4498 6.13138 40.9782 5.3594 41.6491 4.71754C42.3369 4.07567 43.1421 3.58126 44.0647 3.2343C44.9873 2.88735 45.9938 2.71387 47.0841 2.71387C48.1744 2.71387 49.1809 2.88735 50.1035 3.2343C51.0261 3.58126 51.8229 4.07567 52.4939 4.71754C53.1816 5.3594 53.7184 6.13138 54.1042 7.03346C54.4901 7.9182 54.683 8.90702 54.683 9.99993C54.683 11.0928 54.4901 12.0903 54.1042 12.9924C53.7184 13.8772 53.1816 14.6405 52.4939 15.2823C51.8229 15.9242 51.0261 16.4186 50.1035 16.7656C49.1809 17.1125 48.1744 17.286 47.0841 17.286C45.9938 17.286 44.9873 17.1125 44.0647 16.7656C43.1421 16.4186 42.3369 15.9242 41.6491 15.2823C40.9782 14.6405 40.4498 13.8772 40.064 12.9924C39.6781 12.0903 39.4852 11.0928 39.4852 9.99993ZM44.2157 9.99993C44.2157 10.9367 44.4757 11.7087 44.9957 12.3159C45.5325 12.923 46.2286 13.2266 47.0841 13.2266C47.9396 13.2266 48.6274 12.923 49.1474 12.3159C49.6842 11.7087 49.9525 10.9367 49.9525 9.99993C49.9525 9.06315 49.6842 8.29118 49.1474 7.684C48.6274 7.07683 47.9396 6.77325 47.0841 6.77325C46.2286 6.77325 45.5325 7.07683 44.9957 7.684C44.4757 8.29118 44.2157 9.06315 44.2157 9.99993Z" fill="#1D1E27"/>
<path d="M38.1654 8.10035C37.7796 7.84014 37.3602 7.64064 36.9073 7.50185C36.4544 7.34572 35.9763 7.26766 35.4731 7.26766C34.7014 7.26766 34.0472 7.56257 33.5104 8.15239C32.9904 8.74222 32.7304 9.57491 32.7304 10.6505V16.7656H28V3.2343H32.7304V5.49818C33.0491 4.56141 33.5272 3.86749 34.1646 3.41645C34.8189 2.94806 35.5485 2.71387 36.3537 2.71387C36.9073 2.71387 37.4525 2.78326 37.9892 2.92204C38.5428 3.04347 39.0628 3.22563 39.5493 3.4685L38.1654 8.10035Z" fill="#1D1E27"/>
<rect x="1.3381" y="1.3381" width="17.3238" height="17.3238" rx="8.66191" fill="#1D1E27"/>
<rect x="1.3381" y="1.3381" width="17.3238" height="17.3238" rx="8.66191" stroke="black" stroke-width="2.67619"/>
<path d="M16.0409 0H3.95909C1.77255 0 0 1.77255 0 3.95909V16.0409C0 18.2275 1.77255 20 3.95909 20H16.0409C18.2275 20 20 18.2275 20 16.0409V3.95909C20 1.77255 18.2275 0 16.0409 0Z" fill="#1D1E27"/>
<path d="M8.53095 3.64922C9.11824 3.64922 9.59519 4.12533 9.59519 4.71346V8.52998C9.59519 9.11727 9.11908 9.59422 8.53095 9.59422H4.71443C4.12715 9.59422 3.65019 9.11811 3.65019 8.52998C3.65019 7.94269 4.1263 7.46573 4.71443 7.46573H5.96284L4.23832 5.74121C3.84029 5.34318 3.84029 4.69734 4.23832 4.29931L4.30113 4.2365C4.50057 4.03706 4.76111 3.93777 5.0225 3.93777C5.2839 3.93777 5.54444 4.03706 5.74388 4.2365L7.4684 5.96102V4.71346C7.4684 4.12618 7.94451 3.64922 8.53265 3.64922M8.53095 2.80054C7.71452 2.80054 7.01605 3.31484 6.74193 4.03622L6.3422 3.63649C5.98915 3.28344 5.51983 3.08909 5.02081 3.08909C4.52178 3.08909 4.05246 3.28344 3.69941 3.63649L3.63661 3.69929C2.90844 4.42746 2.90844 5.61306 3.63661 6.34123L4.03634 6.74096C3.31496 7.01508 2.80066 7.71355 2.80066 8.52998C2.80066 9.58489 3.65867 10.4429 4.71358 10.4429H8.5301C9.58501 10.4429 10.443 9.58489 10.443 8.52998V4.71346C10.443 3.65855 9.58501 2.80054 8.5301 2.80054H8.53095Z" fill="white"/>
<path d="M15.3238 10.4421C15.9111 10.4421 16.388 10.9182 16.388 11.5063C16.388 12.0944 15.9119 12.5705 15.3238 12.5705H14.0754L15.7999 14.2951C16.1979 14.6931 16.1979 15.3389 15.7999 15.737L15.7371 15.7998C15.5377 15.9992 15.2771 16.0985 15.0157 16.0985C14.7543 16.0985 14.4938 15.9992 14.2944 15.7998L12.5698 14.0753V15.3228C12.5698 15.9101 12.0937 16.3871 11.5056 16.3871C10.9175 16.3871 10.4413 15.911 10.4413 15.3228V11.5063C10.4413 10.919 10.9175 10.4421 11.5056 10.4421H15.3221M15.3238 9.59338H11.5073C10.4524 9.59338 9.59436 10.4514 9.59436 11.5063V15.3228C9.59436 16.3777 10.4524 17.2357 11.5073 17.2357C12.3237 17.2357 13.0222 16.7214 13.2963 16.0001L13.696 16.3989C14.0491 16.752 14.5184 16.9463 15.0174 16.9463C15.5165 16.9463 15.9858 16.752 16.3388 16.3989L16.4016 16.3361C16.7547 15.9831 16.949 15.5138 16.949 15.0147C16.949 14.5157 16.7547 14.0464 16.4016 13.6934L16.0019 13.2945C16.7233 13.0203 17.2376 12.3219 17.2376 11.5055C17.2376 10.4505 16.3796 9.59253 15.3246 9.59253L15.3238 9.59338Z" fill="#FFC300"/>
</svg>
