<svg width="11" height="13" viewBox="0 0 11 13" fill="none" xmlns="http://www.w3.org/2000/svg">
  <path d="M5.5 7.0415C6.39746 7.0415 7.125 6.31397 7.125 5.4165C7.125 4.51904 6.39746 3.7915 5.5 3.7915C4.60254 3.7915 3.875 4.51904 3.875 5.4165C3.875 6.31397 4.60254 7.0415 5.5 7.0415Z" stroke="white" stroke-opacity="0.8" stroke-linecap="round" stroke-linejoin="round"/>
  <path d="M5.49935 1.0835C4.35008 1.0835 3.24788 1.54004 2.43522 2.3527C1.62256 3.16536 1.16602 4.26756 1.16602 5.41683C1.16602 6.44166 1.38377 7.11225 1.97852 7.85433L5.49935 11.9168L9.02018 7.85433C9.61493 7.11225 9.83268 6.44166 9.83268 5.41683C9.83268 4.26756 9.37614 3.16536 8.56348 2.3527C7.75082 1.54004 6.64862 1.0835 5.49935 1.0835Z" stroke="white" stroke-opacity="0.8" stroke-linecap="round" stroke-linejoin="round"/>
</svg>
