<svg width="16" height="16" viewBox="0 0 16 16" fill="none" xmlns="http://www.w3.org/2000/svg">
<path d="M4.33301 8.66658L4.85598 9.71253C5.03297 10.0665 5.12147 10.2435 5.23969 10.3969C5.3446 10.533 5.46661 10.655 5.60271 10.7599C5.75608 10.8781 5.93308 10.9666 6.28706 11.1436L7.33301 11.6666L6.28706 12.1896C5.93308 12.3665 5.75608 12.455 5.60271 12.5733C5.46661 12.6782 5.3446 12.8002 5.23969 12.9363C5.12147 13.0897 5.03297 13.2667 4.85598 13.6206L4.33301 14.6666L3.81004 13.6206C3.63304 13.2667 3.54455 13.0897 3.42632 12.9363C3.32141 12.8002 3.1994 12.6782 3.06331 12.5733C2.90993 12.455 2.73294 12.3665 2.37895 12.1896L1.33301 11.6666L2.37895 11.1436C2.73294 10.9666 2.90993 10.8781 3.06331 10.7599C3.1994 10.655 3.32141 10.533 3.42632 10.3969C3.54455 10.2435 3.63304 10.0665 3.81004 9.71253L4.33301 8.66658Z" fill="url(#paint0_linear_9134_12329)"/>
<path d="M9.99967 1.33325L10.7854 3.3762C10.9734 3.86502 11.0674 4.10943 11.2136 4.31501C11.3432 4.49722 11.5024 4.65642 11.6846 4.78598C11.8902 4.93216 12.1346 5.02616 12.6234 5.21417L14.6663 5.99992L12.6234 6.78567C12.1346 6.97367 11.8902 7.06768 11.6846 7.21386C11.5024 7.34342 11.3432 7.50262 11.2136 7.68482C11.0674 7.89041 10.9734 8.13482 10.7854 8.62364L9.99967 10.6666L9.21393 8.62364C9.02592 8.13482 8.93191 7.89041 8.78573 7.68482C8.65617 7.50262 8.49698 7.34342 8.31477 7.21386C8.10918 7.06768 7.86477 6.97367 7.37595 6.78567L5.33301 5.99992L7.37595 5.21417C7.86477 5.02616 8.10918 4.93216 8.31477 4.78598C8.49698 4.65642 8.65617 4.49722 8.78573 4.31501C8.93191 4.10943 9.02592 3.86502 9.21393 3.3762L9.99967 1.33325Z" fill="url(#paint1_linear_9134_12329)"/>
<defs>
<linearGradient id="paint0_linear_9134_12329" x1="1.33301" y1="7.99992" x2="14.6663" y2="7.99992" gradientUnits="userSpaceOnUse">
<stop stop-color="#5889F2"/>
<stop offset="0.35" stop-color="#9858F2"/>
<stop offset="0.7" stop-color="#F258F2"/>
<stop offset="1" stop-color="#F25893"/>
</linearGradient>
<linearGradient id="paint1_linear_9134_12329" x1="1.33301" y1="7.99992" x2="14.6663" y2="7.99992" gradientUnits="userSpaceOnUse">
<stop stop-color="#5889F2"/>
<stop offset="0.35" stop-color="#9858F2"/>
<stop offset="0.7" stop-color="#F258F2"/>
<stop offset="1" stop-color="#F25893"/>
</linearGradient>
</defs>
</svg>
