<svg width="20" height="20" viewBox="0 0 20 20" fill="none" xmlns="http://www.w3.org/2000/svg">
<path d="M11.6667 17.5H8.33333M7.19421 2.5281C8.01632 1.97075 8.99248 1.66667 9.99999 1.66667C11.3261 1.66667 12.5978 2.19346 13.5355 3.13114C14.4732 4.06882 15 5.34059 15 6.66667C15 8.41731 15.2252 9.79268 15.5403 10.8603M5.21556 5.21437C5.07388 5.68105 5 6.17005 5 6.66667C5 9.24182 4.35039 11.005 3.62472 12.1712C3.01261 13.1549 2.70655 13.6468 2.71777 13.784C2.7302 13.9359 2.76238 13.9938 2.88481 14.0847C2.99538 14.1667 3.49383 14.1667 4.49071 14.1667H14.1667M17.5 17.5L2.5 2.50001" stroke="white" stroke-opacity="0.5" stroke-width="1.5" stroke-linecap="round" stroke-linejoin="round"/>
</svg>
