<svg width="16" height="16" viewBox="0 0 16 16" fill="none" xmlns="http://www.w3.org/2000/svg">
<path d="M1.33325 5.58449C1.33325 5.35094 1.33325 5.23417 1.343 5.13582C1.43699 4.18719 2.18743 3.43674 3.13606 3.34275C3.23441 3.33301 3.35749 3.33301 3.60364 3.33301C3.69849 3.33301 3.74591 3.33301 3.78618 3.33057C4.30033 3.29943 4.75055 2.97493 4.94268 2.49701C4.95773 2.45958 4.97179 2.41739 4.99992 2.33301C5.02805 2.24863 5.04211 2.20644 5.05716 2.16901C5.24928 1.69109 5.69951 1.36658 6.21366 1.33545C6.25393 1.33301 6.2984 1.33301 6.38734 1.33301H9.61249C9.70144 1.33301 9.74591 1.33301 9.78618 1.33545C10.3003 1.36658 10.7506 1.69109 10.9427 2.16901C10.9577 2.20644 10.9718 2.24863 10.9999 2.33301C11.028 2.41739 11.0421 2.45958 11.0572 2.49701C11.2493 2.97493 11.6995 3.29943 12.2137 3.33057C12.2539 3.33301 12.3013 3.33301 12.3962 3.33301C12.6423 3.33301 12.7654 3.33301 12.8638 3.34275C13.8124 3.43674 14.5629 4.18719 14.6568 5.13582C14.6666 5.23417 14.6666 5.35094 14.6666 5.58449V10.7997C14.6666 11.9198 14.6666 12.4798 14.4486 12.9077C14.2569 13.284 13.9509 13.5899 13.5746 13.7817C13.1467 13.9997 12.5867 13.9997 11.4666 13.9997H4.53325C3.41315 13.9997 2.85309 13.9997 2.42527 13.7817C2.04895 13.5899 1.74299 13.284 1.55124 12.9077C1.33325 12.4798 1.33325 11.9198 1.33325 10.7997V5.58449Z" stroke="white" stroke-linecap="round" stroke-linejoin="round"/>
<path d="M7.99992 10.9997C9.47268 10.9997 10.6666 9.80577 10.6666 8.33301C10.6666 6.86025 9.47268 5.66634 7.99992 5.66634C6.52716 5.66634 5.33325 6.86025 5.33325 8.33301C5.33325 9.80577 6.52716 10.9997 7.99992 10.9997Z" stroke="white" stroke-linecap="round" stroke-linejoin="round"/>
</svg>
