<svg width="347" height="53" viewBox="0 0 347 53" fill="none" xmlns="http://www.w3.org/2000/svg">
<path d="M346.145 51.4894C346.691 51.4093 347.07 50.9014 346.989 50.355L345.684 41.4501C345.604 40.9037 345.096 40.5256 344.55 40.6057C344.004 40.6858 343.625 41.1937 343.706 41.7401L344.866 49.6556L336.95 50.8156C336.404 50.8957 336.026 51.4036 336.106 51.95C336.186 52.4965 336.694 52.8745 337.24 52.7945L346.145 51.4894ZM85.742 11.2762L84.7759 11.5341L85.2918 13.4664L86.258 13.2085L86 12.2423L85.742 11.2762ZM173.5 1V2C262.458 2 323.386 34.9138 345.403 51.3022L346 50.5L346.597 49.6978C324.28 33.0862 262.942 0 173.5 0V1ZM86 12.2423L86.258 13.2085C111.024 6.59562 140.259 2 173.5 2V1V0C140.073 0 110.665 4.62148 85.742 11.2762L86 12.2423Z" fill="white"/>
<path d="M0.0127165 50.341C-0.0750799 50.8863 0.295769 51.3995 0.841031 51.4873L9.72658 52.918C10.2718 53.0058 10.785 52.6349 10.8728 52.0897C10.9606 51.5444 10.5898 51.0312 10.0445 50.9434L2.14625 49.6717L3.41801 41.7734C3.5058 41.2281 3.13496 40.7149 2.58969 40.6271C2.04443 40.5393 1.53124 40.9102 1.44344 41.4555L0.0127165 50.341ZM72.0806 17.3523L73.0336 17.0491L72.4272 15.1433L71.4743 15.4464L71.7775 16.3994L72.0806 17.3523ZM1 50.5L1.58571 51.3105C14.1152 42.2563 38.1128 28.1587 72.0806 17.3523L71.7775 16.3994L71.4743 15.4464C37.2951 26.3201 13.1079 40.5167 0.414293 49.6895L1 50.5Z" fill="white"/>
<circle cx="79" cy="14" r="7" stroke="white" stroke-width="2"/>
</svg>
