<svg width="21" height="199" viewBox="0 0 21 199" fill="none" xmlns="http://www.w3.org/2000/svg">
<path d="M11.3638 0.382267C10.8541 -0.127425 10.0277 -0.127425 9.51804 0.382267L1.21214 8.68817C0.702444 9.19786 0.702444 10.0242 1.21214 10.5339C1.72183 11.0436 2.5482 11.0436 3.05789 10.5339L10.4409 3.1509L17.8239 10.5339C18.3336 11.0436 19.16 11.0436 19.6697 10.5339C20.1794 10.0242 20.1794 9.19786 19.6697 8.68817L11.3638 0.382267ZM10.4409 1.30515L9.13577 1.30515L9.13578 118.768L10.4409 118.768L11.7461 118.768L11.7461 1.30515L10.4409 1.30515Z" fill="white"/>
<path d="M9.51804 198C10.0277 198.51 10.8541 198.51 11.3638 198L19.6697 189.694C20.1794 189.184 20.1794 188.358 19.6697 187.848C19.16 187.339 18.3336 187.339 17.8239 187.848L10.4409 195.231L3.05789 187.848C2.5482 187.339 1.72183 187.339 1.21214 187.848C0.702446 188.358 0.702446 189.184 1.21214 189.694L9.51804 198ZM10.4409 137.04L9.13577 137.04L9.13577 197.077L10.4409 197.077L11.7461 197.077L11.7461 137.04L10.4409 137.04Z" fill="white"/>
<circle cx="10.4412" cy="127.904" r="9.13603" stroke="white" stroke-width="2.61029"/>
</svg>
