<svg width="18" height="18" viewBox="0 0 18 18" fill="none" xmlns="http://www.w3.org/2000/svg">
<path d="M13.6667 7.27369L10.3334 3.94036M0.75 16.857L3.57031 16.5437C3.91488 16.5054 4.08717 16.4862 4.2482 16.4341C4.39108 16.3878 4.52704 16.3225 4.65241 16.2398C4.79371 16.1466 4.91629 16.0241 5.16144 15.7789L16.1667 4.77369C17.0872 3.85322 17.0872 2.36083 16.1667 1.44036C15.2462 0.519882 13.7538 0.519881 12.8334 1.44035L1.82811 12.4456C1.58296 12.6907 1.46038 12.8133 1.3672 12.9546C1.28453 13.08 1.21918 13.2159 1.17293 13.3588C1.1208 13.5199 1.10165 13.6921 1.06337 14.0367L0.75 16.857Z" stroke="white" stroke-opacity="0.5" stroke-width="1.5" stroke-linecap="round" stroke-linejoin="round"/>
</svg>
