<svg width="16" height="16" viewBox="0 0 16 16" fill="none" xmlns="http://www.w3.org/2000/svg">
<path d="M12.0001 6.66622L9.33343 3.99955M1.66675 14.3329L3.92299 14.0822C4.19865 14.0516 4.33648 14.0362 4.46531 13.9945C4.57961 13.9575 4.68838 13.9053 4.78867 13.8391C4.90172 13.7646 4.99978 13.6665 5.1959 13.4704L14.0001 4.66622C14.7365 3.92984 14.7365 2.73593 14.0001 1.99955C13.2637 1.26317 12.0698 1.26317 11.3334 1.99955L2.52923 10.8037C2.33311 10.9999 2.23505 11.0979 2.16051 11.211C2.09437 11.3113 2.04209 11.42 2.00509 11.5343C1.96339 11.6632 1.94807 11.801 1.91744 12.0766L1.66675 14.3329Z" stroke="white" stroke-linecap="round" stroke-linejoin="round"/>
</svg>
