<svg width="20" height="20" viewBox="0 0 20 20" fill="none" xmlns="http://www.w3.org/2000/svg">
<circle cx="10" cy="10" r="10" fill="#FF5656"/>
<path d="M10.0002 14.6252C10.5474 14.6254 10.9914 15.0692 10.9914 15.6165C10.9912 16.1636 10.5473 16.6066 10.0002 16.6067C9.45297 16.6067 9.0092 16.1636 9.00897 15.6165C9.00897 15.0691 9.45283 14.6252 10.0002 14.6252ZM10.0002 3.39282C10.8845 3.39294 11.5755 4.15647 11.4875 5.03638L10.7267 12.6458C10.6894 13.0189 10.3752 13.3039 10.0002 13.304C9.6251 13.304 9.31094 13.019 9.27362 12.6458L8.51288 5.03638C8.42488 4.15638 9.1158 3.39282 10.0002 3.39282Z" fill="white"/>
</svg>
