<svg width="134" height="127" viewBox="0 0 134 127" fill="none" xmlns="http://www.w3.org/2000/svg">
<path d="M27.4838 89.9873L10.0732 71.9324L108.985 68.9873L132.101 83.9984L27.4838 89.9873Z" fill="#FFC300"/>
<path d="M28.0561 127.005L27.0732 89.1423L132.073 83.9873L131.19 119.569L28.0561 127.005Z" fill="#1D1E27"/>
<path d="M28.0732 126.987L27.2906 89.104L10.0732 71.9873L11.1167 106.221L28.0732 126.987Z" fill="#34353D"/>
<path d="M1.79549 74.7457L0.0136719 40.9873L40.2319 53.4577L42.0137 89.9873L1.79549 74.7457Z" fill="#34353D"/>
<path d="M128.014 41.9873L40.0137 53.6732L41.6645 89.9873L128.014 77.2962V41.9873Z" fill="#1D1E27"/>
<path d="M76.5069 30.9873L-2.93755e-05 40.9983L40.048 53.8368L128.014 42.0376L76.5069 30.9873Z" fill="#FFC300"/>
<path d="M100.604 31.9355L12.8789 45.1271L24.8192 48.9688L111.142 35.1138L100.604 31.9355Z" fill="#34353D" fill-opacity="0.3"/>
<path d="M13.5856 58.6946L12.8789 45.1348L24.8319 48.9617L25.2677 62.8348L13.5856 58.6946Z" fill="#FFC300" fill-opacity="0.3"/>
<path d="M27.0137 46.9873L9.01367 34.7024V2.9873L26.1137 9.38047L27.0137 46.9873Z" fill="#34353D"/>
<path d="M133.014 6.9873L26.1094 9.39828L27.01 46.9912L133.014 40.7124V6.9873Z" fill="#1D1E27"/>
<path d="M133.014 7.9873L26.6299 10.8794V27.8407L133.014 22.8129V7.9873Z" fill="#121319"/>
<path d="M9.00684 18.5409V5.28433V4.31934L26.3202 11.3303L26.63 27.9104L9.00684 18.5409Z" fill="#1D1E27"/>
<path d="M8.21973 16.162V2.90543V1.94043L26.629 8.95136V26.149L8.21973 16.162Z" fill="#34353D"/>
<path d="M133.577 6.1875L26.6299 9.07959V26.0409L133.577 21.0131V6.1875Z" fill="#1D1E27"/>
<path d="M112.048 0L8.22852 1.94057L26.7041 9.02424L133.575 6.1799L112.048 0Z" fill="#FFC300"/>
</svg>
