<svg width="147" height="42" viewBox="0 0 147 42" fill="none" xmlns="http://www.w3.org/2000/svg">
<g clip-path="url(#clip0_1950_4704)">
<path d="M24.0034 23.2577L17.8006 20.9456C17.617 20.8807 17.4526 20.7708 17.3227 20.6257C17.1927 20.4807 17.1013 20.3053 17.0569 20.1157C17.0125 19.9261 17.0166 19.7284 17.0686 19.5408C17.1207 19.3532 17.2191 19.1816 17.3548 19.042L21.2456 15.1513C21.3893 15.0166 21.5647 14.9204 21.7555 14.8715C21.9464 14.8227 22.1464 14.8228 22.3372 14.8719C22.528 14.9209 22.7033 15.0174 22.8468 15.1523C22.9904 15.2872 23.0976 15.4561 23.1584 15.6434L25.4613 21.8463C25.5252 22.0473 25.5319 22.2621 25.4804 22.4666C25.4289 22.6711 25.3213 22.8572 25.1698 23.0038C25.0183 23.1505 24.8288 23.252 24.6228 23.2969C24.4167 23.3417 24.2022 23.3282 24.0034 23.2577V23.2577Z" stroke="#FFC300" stroke-linecap="round" stroke-linejoin="round"/>
<path d="M14.9033 17.6214C15.3157 17.3913 15.7986 17.3218 16.259 17.4264" stroke="#FFC300" stroke-linecap="round" stroke-linejoin="round"/>
<path d="M17.0203 14.9744C16.7574 14.5779 16.6484 14.0991 16.7139 13.6279" stroke="#FFC300" stroke-linecap="round" stroke-linejoin="round"/>
<path d="M19.1558 11.6689C18.8304 12.6659 18.8732 13.7466 19.2765 14.7147" stroke="#FFC300" stroke-linecap="round" stroke-linejoin="round"/>
<path d="M13.9282 14.5106C14.1846 14.5106 14.3924 14.3027 14.3924 14.0463C14.3924 13.7899 14.1846 13.582 13.9282 13.582C13.6717 13.582 13.4639 13.7899 13.4639 14.0463C13.4639 14.3027 13.6717 14.5106 13.9282 14.5106Z" stroke="#FFC300" stroke-linecap="round" stroke-linejoin="round"/>
</g>
<path d="M35.8516 13.3281C35.8516 14.8906 36.9922 16.4219 39.2109 17.0312L38.4141 18.375C36.8047 17.9297 35.6484 16.9688 35.0234 15.75C34.3984 17.1328 33.2344 18.2188 31.5703 18.75L30.7266 17.375C32.9453 16.7031 34.1172 15.0469 34.1172 13.3281V13.1875H31.1641V11.8125H34.1172V10.2188H35.8672V11.8125H38.8047V13.1875H35.8516V13.3281ZM42.6016 10.2656V19.9531H40.8672V15.5312H38.3984V14.1094H40.8672V10.2656H42.6016ZM38.8203 19.3281C38.8047 20.9844 40.5703 22.5469 43.4297 22.9531L42.7422 24.3125C40.4766 23.9688 38.75 22.9141 37.8984 21.4531C37.0312 22.8906 35.2969 23.9688 33.0547 24.3125L32.4297 22.9531C35.1953 22.5312 37.0234 20.9062 37.0234 19.3281V19.0625H38.8203V19.3281ZM61.2734 16V17.375H55.6797V18.4375H59.6641V21.9062H51.6328V22.9375H60.0547V24.2656H49.9297V20.6562H57.9609V19.75H49.9141V18.4375H53.9453V17.375H48.3984V16H61.2734ZM59.6172 10.7031V15.1094H50.0234V10.7031H59.6172ZM51.7266 12.0625V13.75H57.8828V12.0625H51.7266ZM74.0547 10.2812V20.6406H72.3203V15.8906H69.6016V14.4531H72.3203V10.2812H74.0547ZM69.6953 11.3438C69.6953 15.0625 67.2266 17.8594 63.1484 19.1562L62.4141 17.7656C65.4609 16.7969 67.4688 15 67.8047 12.7656H63.1484V11.3438H69.6953ZM74.4141 22.7031V24.1094H64.8516V19.5938H66.6172V22.7031H74.4141ZM92.7422 16.8125V18.2344H79.8516V16.8125H92.7422ZM91.2578 14.3125V15.7031H81.4297V10.7188H91.1797V12.125H83.1641V14.3125H91.2578ZM86.2734 19.2188C89.3203 19.2031 91.1484 20.1406 91.1641 21.7812C91.1484 23.4375 89.3203 24.375 86.2734 24.375C83.1953 24.375 81.3516 23.4375 81.3516 21.7812C81.3516 20.1406 83.1953 19.2031 86.2734 19.2188ZM86.2734 20.5469C84.2109 20.5469 83.1016 20.9844 83.1172 21.7812C83.1016 22.6094 84.2109 23.0312 86.2734 23.0312C88.2891 23.0312 89.4141 22.6094 89.4297 21.7812C89.4141 20.9844 88.2891 20.5469 86.2734 20.5469ZM106.57 17.9062V19.3125H93.6641V17.9062H99.2578V16.7344H95.3047V12.9844H103.242V11.9375H95.2578V10.5781H104.977V14.25H97.0234V15.375H105.258V16.7344H100.977V17.9062H106.57ZM105.055 20.2031V24.2969H103.305V21.5781H95.1016V20.2031H105.055ZM118.57 10.2656V15.8906H120.742V17.3281H118.57V24.3906H116.852V10.2656H118.57ZM115.758 12.4375V13.8281H107.43V12.4375H110.773V10.4688H112.508V12.4375H115.758ZM111.648 14.75C113.68 14.75 115.195 16.125 115.195 18.0781C115.195 20.0312 113.68 21.3906 111.648 21.3906C109.586 21.3906 108.07 20.0312 108.086 18.0781C108.07 16.125 109.586 14.75 111.648 14.75ZM111.648 16.1719C110.539 16.1719 109.742 16.9219 109.742 18.0781C109.742 19.2344 110.539 19.9688 111.648 19.9531C112.727 19.9688 113.523 19.2344 113.539 18.0781C113.523 16.9219 112.727 16.1719 111.648 16.1719ZM133.133 10.2656V24.3906H131.383V10.2656H133.133ZM128.914 11.7656C128.914 15.9688 127.289 19.5469 122.336 21.8906L121.43 20.5C125.125 18.7422 126.844 16.3516 127.148 13.1406H122.148V11.7656H128.914Z" fill="#FFC300"/>
<path d="M146 17.2715L146.5 17.2715V17.2715H146ZM79.542 33.542V33.042H79.2947L79.1446 33.2385L79.542 33.542ZM73.8457 41L73.4645 41.3236L73.8662 41.7969L74.2431 41.3035L73.8457 41ZM67.5156 33.542L67.8968 33.2184L67.7471 33.042H67.5156V33.542ZM1 17.2715L0.5 17.2715L0.5 17.2715L1 17.2715ZM129.729 1V1.5C138.439 1.5 145.5 8.5613 145.5 17.2715H146H146.5C146.5 8.00902 138.991 0.5 129.729 0.5V1ZM146 17.2715L145.5 17.2715C145.5 25.9815 138.439 33.042 129.729 33.042V33.542V34.042C138.991 34.042 146.5 26.5338 146.5 17.2715L146 17.2715ZM129.729 33.542V33.042H79.542V33.542V34.042H129.729V33.542ZM79.542 33.542L79.1446 33.2385L73.4483 40.6965L73.8457 41L74.2431 41.3035L79.9393 33.8455L79.542 33.542ZM73.8457 41L74.2269 40.6764L67.8968 33.2184L67.5156 33.542L67.1344 33.8655L73.4645 41.3236L73.8457 41ZM67.5156 33.542V33.042H17.2715V33.542V34.042H67.5156V33.542ZM17.2715 33.542V33.042C8.56137 33.042 1.50016 25.9815 1.5 17.2715L1 17.2715L0.5 17.2715C0.500166 26.5338 8.00915 34.042 17.2715 34.042V33.542ZM1 17.2715H1.5C1.5 8.5613 8.5613 1.5 17.2715 1.5V1V0.5C8.00902 0.5 0.5 8.00902 0.5 17.2715H1ZM17.2715 1V1.5H129.729V1V0.5H17.2715V1Z" fill="#FFC300"/>
<defs>
<clipPath id="clip0_1950_4704">
<rect width="13" height="13" fill="white" transform="translate(13 11)"/>
</clipPath>
</defs>
</svg>
