<svg width="14" height="14" viewBox="0 0 14 14" fill="none" xmlns="http://www.w3.org/2000/svg">
<path fill-rule="evenodd" clip-rule="evenodd" d="M6.99609 2.99589C5.8298 1.6324 3.88493 1.26562 2.42365 2.51417C0.962374 3.76272 0.756646 5.85024 1.9042 7.3269C2.85831 8.55465 5.74578 11.1441 6.69214 11.9822C6.79802 12.0759 6.85096 12.1228 6.91271 12.1412C6.9666 12.1573 7.02557 12.1573 7.07947 12.1412C7.14122 12.1228 7.19416 12.0759 7.30003 11.9822C8.24639 11.1441 11.1339 8.55465 12.088 7.3269C13.2355 5.85024 13.0549 3.74959 11.5685 2.51417C10.0821 1.27876 8.16238 1.6324 6.99609 2.99589Z" fill="white" fill-opacity="0.6"/>
<path d="M2.26147 2.32422C3.76743 1.03756 5.7396 1.34793 6.99585 2.62695C8.25136 1.34728 10.2007 1.05265 11.7283 2.32227C13.3209 3.64611 13.5131 5.90009 12.2849 7.48047C11.7941 8.11191 10.8202 9.07896 9.86304 9.98242C8.9009 10.8906 7.93965 11.7491 7.46558 12.1689C7.4156 12.2132 7.36792 12.2569 7.32397 12.29C7.27711 12.3253 7.22114 12.3599 7.15112 12.3809C7.0507 12.4108 6.94199 12.4108 6.84155 12.3809C6.77159 12.36 6.71554 12.3253 6.6687 12.29C6.62474 12.2569 6.57612 12.2132 6.52612 12.1689C6.05197 11.749 5.09158 10.8904 4.12964 9.98242C3.17229 9.0788 2.19755 8.11195 1.70679 7.48047C0.476389 5.8972 0.69976 3.65858 2.26147 2.32422Z" stroke="white" stroke-opacity="0.6" stroke-width="0.5" stroke-linecap="round" stroke-linejoin="round"/>
</svg>
