<svg width="18" height="18" viewBox="0 0 18 18" fill="none" xmlns="http://www.w3.org/2000/svg">
<path d="M16.03 0C17.1182 0.000135493 17.9998 0.883065 17.9998 1.9707V16.0293C17.9998 17.1169 17.1182 17.9999 16.03 18H1.9812C0.892946 18 0.0114703 17.117 0.0114703 16.0293V9.94727C-0.00476101 9.86201 -0.0028562 9.77791 0.0114703 9.69727V1.9707C0.0114703 0.882981 0.892946 0 1.9812 0H16.03ZM2.60424 10.332C2.20014 10.331 1.79677 10.3574 1.39624 10.4082V16.0293C1.39624 16.3533 1.6587 16.6152 1.9812 16.6152H11.1804C10.6874 14.915 9.68776 13.3977 8.30346 12.2744C6.80006 11.0546 4.93615 10.373 3.00854 10.3311H2.6228C2.61696 10.3312 2.61008 10.332 2.60424 10.332ZM14.1003 12.8877C13.0992 12.8855 12.106 13.0447 11.158 13.3555C11.8299 14.3418 12.3242 15.4447 12.614 16.6152H16.03C16.3524 16.6151 16.615 16.3532 16.615 16.0293V13.2354C15.7978 13.0054 14.9527 12.8873 14.1023 12.8877H14.1003ZM1.9812 1.38477C1.6587 1.38477 1.39624 1.64668 1.39624 1.9707V9.01562C1.79291 8.97197 2.19201 8.94782 2.59155 8.94824V8.94727C4.98366 8.89328 7.31708 9.69133 9.17553 11.1992C9.55948 11.5108 9.91668 11.8495 10.2478 12.21C11.4779 11.7412 12.7845 11.5001 14.1033 11.5029L14.1023 11.5039C14.95 11.5035 15.7933 11.6047 16.615 11.8037V1.9707C16.615 1.64676 16.3524 1.3849 16.03 1.38477H1.9812ZM11.866 3.19531C13.4832 3.19531 14.7936 4.50701 14.7937 6.12402C14.7937 7.74115 13.4832 9.05273 11.866 9.05273C10.2488 9.05255 8.9392 7.74103 8.9392 6.12402C8.93934 4.50713 10.2489 3.1955 11.866 3.19531ZM11.866 4.58008C11.0147 4.58027 10.3241 5.27082 10.324 6.12402C10.324 6.97734 11.0146 7.66778 11.866 7.66797C12.7175 7.66797 13.4089 6.97746 13.4089 6.12402C13.4088 5.27071 12.7174 4.58008 11.866 4.58008Z" fill="white" fill-opacity="0.4"/>
</svg>
