<svg width="35" height="49" viewBox="0 0 35 49" fill="none" xmlns="http://www.w3.org/2000/svg">
<mask id="path-1-inside-1_1970_5166" fill="white">
<path d="M17.5 0.785156C21.895 0.785156 26.11 2.53199 29.2178 5.63965C32.3253 8.74734 34.0713 12.9626 34.0713 17.3574L34.0596 17.8047C33.939 20.085 32.9302 22.9971 31.5146 26.0625C29.9959 29.3512 27.975 32.8876 25.9609 36.1348C23.9458 39.3836 21.931 42.3527 20.4209 44.5088C19.6657 45.587 19.0356 46.463 18.5947 47.0693C18.3745 47.3722 18.2013 47.6084 18.083 47.7686C18.0239 47.8486 17.978 47.9099 17.9473 47.9512L17.9033 48.0098L17.9014 48.0137L17.5 47.7148L17.9004 48.0146C17.806 48.1404 17.6573 48.2148 17.5 48.2148C17.3427 48.2148 17.194 48.1405 17.0996 48.0146L17.0986 48.0137L17.0967 48.0098L17.0527 47.9512C17.022 47.9099 16.976 47.8485 16.917 47.7686C16.7987 47.6083 16.6255 47.3722 16.4053 47.0693C15.9644 46.463 15.3343 45.587 14.5791 44.5088C13.069 42.3527 11.0542 39.3836 9.03906 36.1348C7.02502 32.8877 5.00502 29.3512 3.48633 26.0625C2.07082 22.9971 1.06104 20.085 0.94043 17.8047L0.928711 17.3574C0.928748 12.9626 2.67467 8.74734 5.78223 5.63965C8.88994 2.53194 13.105 0.785193 17.5 0.785156Z"/>
</mask>
<path d="M17.5 0.785156C21.895 0.785156 26.11 2.53199 29.2178 5.63965C32.3253 8.74734 34.0713 12.9626 34.0713 17.3574L34.0596 17.8047C33.939 20.085 32.9302 22.9971 31.5146 26.0625C29.9959 29.3512 27.975 32.8876 25.9609 36.1348C23.9458 39.3836 21.931 42.3527 20.4209 44.5088C19.6657 45.587 19.0356 46.463 18.5947 47.0693C18.3745 47.3722 18.2013 47.6084 18.083 47.7686C18.0239 47.8486 17.978 47.9099 17.9473 47.9512L17.9033 48.0098L17.9014 48.0137L17.5 47.7148L17.9004 48.0146C17.806 48.1404 17.6573 48.2148 17.5 48.2148C17.3427 48.2148 17.194 48.1405 17.0996 48.0146L17.0986 48.0137L17.0967 48.0098L17.0527 47.9512C17.022 47.9099 16.976 47.8485 16.917 47.7686C16.7987 47.6083 16.6255 47.3722 16.4053 47.0693C15.9644 46.463 15.3343 45.587 14.5791 44.5088C13.069 42.3527 11.0542 39.3836 9.03906 36.1348C7.02502 32.8877 5.00502 29.3512 3.48633 26.0625C2.07082 22.9971 1.06104 20.085 0.94043 17.8047L0.928711 17.3574C0.928748 12.9626 2.67467 8.74734 5.78223 5.63965C8.88994 2.53194 13.105 0.785193 17.5 0.785156Z" fill="#FFC300"/>
<path d="M17.5 0.785156V-0.214844H17.5L17.5 0.785156ZM29.2178 5.63965L29.9249 4.93256L29.9249 4.93253L29.2178 5.63965ZM34.0713 17.3574L35.0709 17.3836C35.0712 17.3749 35.0713 17.3661 35.0713 17.3574L34.0713 17.3574ZM34.0596 17.8047L35.0582 17.8575C35.0586 17.8486 35.059 17.8398 35.0592 17.8309L34.0596 17.8047ZM31.5146 26.0625L32.4225 26.4817L32.4225 26.4817L31.5146 26.0625ZM25.9609 36.1348L26.8107 36.6619L26.8107 36.6619L25.9609 36.1348ZM20.4209 44.5088L21.24 45.0825H21.24L20.4209 44.5088ZM18.5947 47.0693L19.4035 47.6575L19.4035 47.6575L18.5947 47.0693ZM18.083 47.7686L18.8874 48.3627L18.8874 48.3626L18.083 47.7686ZM17.9473 47.9512L18.7473 48.5512L18.7497 48.548L17.9473 47.9512ZM17.9033 48.0098L17.1033 47.4098C17.0673 47.4578 17.0357 47.5089 17.0089 47.5626L17.9033 48.0098ZM17.9014 48.0137L17.3042 48.8158C17.5415 48.9925 17.845 49.055 18.1328 48.9865C18.4207 48.918 18.6635 48.7256 18.7958 48.4609L17.9014 48.0137ZM17.5 47.7148L18.0972 46.9127C17.6546 46.5832 17.0288 46.6745 16.6987 47.1166C16.3686 47.5587 16.459 48.1846 16.9006 48.5153L17.5 47.7148ZM17.9004 48.0146L18.7002 48.615C18.8595 48.4027 18.9279 48.1358 18.8903 47.873C18.8527 47.6103 18.7122 47.3733 18.4998 47.2142L17.9004 48.0146ZM17.5 48.2148L17.4997 49.2148H17.5V48.2148ZM17.0996 48.0146L17.8996 47.4146C17.8712 47.3768 17.8402 47.341 17.8067 47.3075L17.0996 48.0146ZM17.0986 48.0137L16.2042 48.4609C16.2523 48.557 16.3155 48.6448 16.3915 48.7208L17.0986 48.0137ZM17.0967 48.0098L17.9911 47.5626C17.9643 47.5089 17.9327 47.4578 17.8967 47.4098L17.0967 48.0098ZM17.0527 47.9512L16.2503 48.548L16.2527 48.5512L17.0527 47.9512ZM16.917 47.7686L16.1126 48.3626L16.1126 48.3627L16.917 47.7686ZM16.4053 47.0693L15.5965 47.6575L15.5965 47.6575L16.4053 47.0693ZM14.5791 44.5088L13.76 45.0825H13.76L14.5791 44.5088ZM9.03906 36.1348L8.18926 36.6619L8.18926 36.6619L9.03906 36.1348ZM3.48633 26.0625L2.57845 26.4817L2.57846 26.4818L3.48633 26.0625ZM0.94043 17.8047L-0.0592272 17.8309C-0.0589946 17.8398 -0.0586436 17.8486 -0.0581744 17.8575L0.94043 17.8047ZM0.928711 17.3574L-0.0712891 17.3574C-0.0712892 17.3661 -0.0711748 17.3749 -0.070946 17.3836L0.928711 17.3574ZM5.78223 5.63965L5.07512 4.93254L5.07511 4.93256L5.78223 5.63965ZM17.5 0.785156V1.78516C21.6296 1.78516 25.5904 3.42654 28.5107 6.34676L29.2178 5.63965L29.9249 4.93253C26.6297 1.63744 22.1603 -0.214844 17.5 -0.214844V0.785156ZM29.2178 5.63965L28.5107 6.34674C31.4307 9.26689 33.0713 13.2278 33.0713 17.3574L34.0713 17.3574L35.0713 17.3574C35.0713 12.6974 33.22 8.22779 29.9249 4.93256L29.2178 5.63965ZM34.0713 17.3574L33.0716 17.3312L33.0599 17.7785L34.0596 17.8047L35.0592 17.8309L35.0709 17.3836L34.0713 17.3574ZM34.0596 17.8047L33.061 17.7519C32.9509 19.8319 32.0125 22.5991 30.6068 25.6433L31.5146 26.0625L32.4225 26.4817C33.8478 23.3952 34.927 20.338 35.0582 17.8575L34.0596 17.8047ZM31.5146 26.0625L30.6068 25.6433C29.1122 28.8799 27.1147 32.3775 25.1111 35.6077L25.9609 36.1348L26.8107 36.6619C28.8354 33.3977 30.8797 29.8226 32.4225 26.4817L31.5146 26.0625ZM25.9609 36.1348L25.1111 35.6077C23.1087 38.8361 21.105 41.7889 19.6018 43.9351L20.4209 44.5088L21.24 45.0825C22.7571 42.9164 24.7829 39.9312 26.8107 36.6619L25.9609 36.1348ZM20.4209 44.5088L19.6018 43.9351C18.8506 45.0077 18.224 45.8789 17.786 46.4812L18.5947 47.0693L19.4035 47.6575C19.8473 47.0471 20.4809 46.1662 21.24 45.0825L20.4209 44.5088ZM18.5947 47.0693L17.786 46.4812C17.5668 46.7826 17.3951 47.0167 17.2786 47.1745L18.083 47.7686L18.8874 48.3626C19.0075 48.2 19.1822 47.9618 19.4035 47.6575L18.5947 47.0693ZM18.083 47.7686L17.2786 47.1745C17.2208 47.2528 17.178 47.3098 17.1449 47.3544L17.9473 47.9512L18.7497 48.548C18.7779 48.51 18.8271 48.4443 18.8874 48.3627L18.083 47.7686ZM17.9473 47.9512L17.1473 47.3512L17.1033 47.4098L17.9033 48.0098L18.7033 48.6098L18.7473 48.5512L17.9473 47.9512ZM17.9033 48.0098L17.0089 47.5626L17.0069 47.5665L17.9014 48.0137L18.7958 48.4609L18.7977 48.457L17.9033 48.0098ZM17.9014 48.0137L18.4986 47.2116L18.0972 46.9127L17.5 47.7148L16.9028 48.5169L17.3042 48.8158L17.9014 48.0137ZM17.5 47.7148L16.9006 48.5153L17.301 48.8151L17.9004 48.0146L18.4998 47.2142L18.0994 46.9144L17.5 47.7148ZM17.9004 48.0146L17.1006 47.4143C17.1948 47.2889 17.3423 47.2148 17.5 47.2148V48.2148V49.2148C17.9724 49.2148 18.4171 48.992 18.7002 48.615L17.9004 48.0146ZM17.5 48.2148L17.5003 47.2148C17.6574 47.2149 17.805 47.2886 17.8996 47.4146L17.0996 48.0146L16.2996 48.6147C16.583 48.9924 17.028 49.2147 17.4997 49.2148L17.5 48.2148ZM17.0996 48.0146L17.8067 47.3075L17.8057 47.3066L17.0986 48.0137L16.3915 48.7208L16.3925 48.7218L17.0996 48.0146ZM17.0986 48.0137L17.9931 47.5665L17.9911 47.5626L17.0967 48.0098L16.2023 48.457L16.2042 48.4609L17.0986 48.0137ZM17.0967 48.0098L17.8967 47.4098L17.8527 47.3512L17.0527 47.9512L16.2527 48.5512L16.2967 48.6098L17.0967 48.0098ZM17.0527 47.9512L17.8551 47.3544C17.822 47.3098 17.7792 47.2527 17.7214 47.1745L16.917 47.7686L16.1126 48.3627C16.1729 48.4443 16.2221 48.51 16.2503 48.548L17.0527 47.9512ZM16.917 47.7686L17.7214 47.1745C17.6049 47.0167 17.4332 46.7825 17.214 46.4812L16.4053 47.0693L15.5965 47.6575C15.8178 47.9618 15.9925 48.2 16.1126 48.3626L16.917 47.7686ZM16.4053 47.0693L17.214 46.4812C16.776 45.8789 16.1494 45.0077 15.3982 43.9351L14.5791 44.5088L13.76 45.0825C14.5191 46.1662 15.1527 47.0471 15.5965 47.6575L16.4053 47.0693ZM14.5791 44.5088L15.3982 43.9351C13.895 41.7889 11.8913 38.836 9.88886 35.6077L9.03906 36.1348L8.18926 36.6619C10.2171 39.9312 12.2429 42.9164 13.76 45.0825L14.5791 44.5088ZM9.03906 36.1348L9.88887 35.6077C7.88548 32.3778 5.88886 28.8799 4.3942 25.6432L3.48633 26.0625L2.57846 26.4818C4.12118 29.8225 6.16456 33.3976 8.18926 36.6619L9.03906 36.1348ZM3.48633 26.0625L4.39421 25.6433C2.98835 22.5988 2.04905 19.8318 1.93903 17.7519L0.94043 17.8047L-0.0581744 17.8575C0.0730361 20.3382 1.15329 23.3955 2.57845 26.4817L3.48633 26.0625ZM0.94043 17.8047L1.94009 17.7785L1.92837 17.3312L0.928711 17.3574L-0.070946 17.3836L-0.0592272 17.8309L0.94043 17.8047ZM0.928711 17.3574L1.92871 17.3574C1.92875 13.2278 3.56932 9.26689 6.48935 6.34674L5.78223 5.63965L5.07511 4.93256C1.78001 8.22779 -0.0712499 12.6974 -0.0712891 17.3574L0.928711 17.3574ZM5.78223 5.63965L6.48933 6.34676C9.4096 3.42649 13.3704 1.78519 17.5 1.78516L17.5 0.785156L17.5 -0.214844C12.8397 -0.214805 8.37028 1.63738 5.07512 4.93254L5.78223 5.63965Z" fill="black" fill-opacity="0.1" mask="url(#path-1-inside-1_1970_5166)"/>
<circle cx="17.5" cy="17.3506" r="7" fill="white"/>
</svg>
