<svg width="125" height="18" viewBox="0 0 125 18" fill="none" xmlns="http://www.w3.org/2000/svg">
  <path d="M12.2251 6.51C11.7651 6.21 11.2651 5.98 10.7251 5.82C10.1851 5.64 9.61508 5.55 9.01508 5.55C8.09508 5.55 7.31508 5.89 6.67508 6.57C6.05508 7.25 5.74508 8.21 5.74508 9.45V16.5H0.105078V0.899999H5.74508V3.51C6.12508 2.43 6.69508 1.63 7.45508 1.11C8.23508 0.57 9.10508 0.3 10.0651 0.3C10.7251 0.3 11.3751 0.38 12.0151 0.539999C12.6751 0.679999 13.2951 0.889999 13.8751 1.17L12.2251 6.51ZM13.7984 8.7C13.7984 7.44 14.0284 6.3 14.4884 5.28C14.9484 4.24 15.5784 3.35 16.3784 2.61C17.1984 1.87 18.1584 1.3 19.2584 0.899999C20.3584 0.5 21.5584 0.3 22.8584 0.3C24.1584 0.3 25.3584 0.5 26.4584 0.899999C27.5584 1.3 28.5084 1.87 29.3084 2.61C30.1284 3.35 30.7684 4.24 31.2284 5.28C31.6884 6.3 31.9184 7.44 31.9184 8.7C31.9184 9.96 31.6884 11.11 31.2284 12.15C30.7684 13.17 30.1284 14.05 29.3084 14.79C28.5084 15.53 27.5584 16.1 26.4584 16.5C25.3584 16.9 24.1584 17.1 22.8584 17.1C21.5584 17.1 20.3584 16.9 19.2584 16.5C18.1584 16.1 17.1984 15.53 16.3784 14.79C15.5784 14.05 14.9484 13.17 14.4884 12.15C14.0284 11.11 13.7984 9.96 13.7984 8.7ZM19.4384 8.7C19.4384 9.78 19.7484 10.67 20.3684 11.37C21.0084 12.07 21.8384 12.42 22.8584 12.42C23.8784 12.42 24.6984 12.07 25.3184 11.37C25.9584 10.67 26.2784 9.78 26.2784 8.7C26.2784 7.62 25.9584 6.73 25.3184 6.03C24.6984 5.33 23.8784 4.98 22.8584 4.98C21.8384 4.98 21.0084 5.33 20.3684 6.03C19.7484 6.73 19.4384 7.62 19.4384 8.7ZM55.1703 16.5V8.16C55.1703 7.26 54.9503 6.54 54.5103 6C54.0703 5.44 53.4703 5.16 52.7103 5.16C51.9503 5.16 51.3503 5.44 50.9103 6C50.4703 6.54 50.2503 7.26 50.2503 8.16V16.5H44.8803V8.16C44.8803 7.26 44.6503 6.54 44.1903 6C43.7303 5.44 43.1403 5.16 42.4203 5.16C41.6603 5.16 41.0603 5.44 40.6203 6C40.1803 6.54 39.9603 7.26 39.9603 8.16V16.5H34.4703V0.899999H39.9003V2.52C40.3003 1.84 40.8603 1.3 41.5803 0.899999C42.3203 0.5 43.2003 0.3 44.2203 0.3C45.2203 0.3 46.1203 0.49 46.9203 0.87C47.7203 1.25 48.3803 1.82 48.9003 2.58C49.3603 1.9 49.9703 1.35 50.7303 0.93C51.4903 0.51 52.3503 0.3 53.3103 0.3C55.6903 0.3 57.5103 0.93 58.7703 2.19C60.0303 3.45 60.6603 5.27 60.6603 7.65V16.5H55.1703ZM75.77 6.51C75.31 6.21 74.81 5.98 74.27 5.82C73.73 5.64 73.16 5.55 72.56 5.55C71.64 5.55 70.86 5.89 70.22 6.57C69.6 7.25 69.29 8.21 69.29 9.45V16.5H63.65V0.899999H69.29V3.51C69.67 2.43 70.24 1.63 71 1.11C71.78 0.57 72.65 0.3 73.61 0.3C74.27 0.3 74.92 0.38 75.56 0.539999C76.22 0.679999 76.84 0.889999 77.42 1.17L75.77 6.51ZM77.3434 8.7C77.3434 7.44 77.5734 6.3 78.0334 5.28C78.4934 4.24 79.1234 3.35 79.9234 2.61C80.7434 1.87 81.7034 1.3 82.8034 0.899999C83.9034 0.5 85.1034 0.3 86.4034 0.3C87.7034 0.3 88.9034 0.5 90.0034 0.899999C91.1034 1.3 92.0534 1.87 92.8534 2.61C93.6734 3.35 94.3134 4.24 94.7734 5.28C95.2334 6.3 95.4634 7.44 95.4634 8.7C95.4634 9.96 95.2334 11.11 94.7734 12.15C94.3134 13.17 93.6734 14.05 92.8534 14.79C92.0534 15.53 91.1034 16.1 90.0034 16.5C88.9034 16.9 87.7034 17.1 86.4034 17.1C85.1034 17.1 83.9034 16.9 82.8034 16.5C81.7034 16.1 80.7434 15.53 79.9234 14.79C79.1234 14.05 78.4934 13.17 78.0334 12.15C77.5734 11.11 77.3434 9.96 77.3434 8.7ZM82.9834 8.7C82.9834 9.78 83.2934 10.67 83.9134 11.37C84.5534 12.07 85.3834 12.42 86.4034 12.42C87.4234 12.42 88.2434 12.07 88.8634 11.37C89.5034 10.67 89.8234 9.78 89.8234 8.7C89.8234 7.62 89.5034 6.73 88.8634 6.03C88.2434 5.33 87.4234 4.98 86.4034 4.98C85.3834 4.98 84.5534 5.33 83.9134 6.03C83.2934 6.73 82.9834 7.62 82.9834 8.7ZM118.715 16.5V8.16C118.715 7.26 118.495 6.54 118.055 6C117.615 5.44 117.015 5.16 116.255 5.16C115.495 5.16 114.895 5.44 114.455 6C114.015 6.54 113.795 7.26 113.795 8.16V16.5H108.425V8.16C108.425 7.26 108.195 6.54 107.735 6C107.275 5.44 106.685 5.16 105.965 5.16C105.205 5.16 104.605 5.44 104.165 6C103.725 6.54 103.505 7.26 103.505 8.16V16.5H98.0152V0.899999H103.445V2.52C103.845 1.84 104.405 1.3 105.125 0.899999C105.865 0.5 106.745 0.3 107.765 0.3C108.765 0.3 109.665 0.49 110.465 0.87C111.265 1.25 111.925 1.82 112.445 2.58C112.905 1.9 113.515 1.35 114.275 0.93C115.035 0.51 115.895 0.3 116.855 0.3C119.235 0.3 121.055 0.93 122.315 2.19C123.575 3.45 124.205 5.27 124.205 7.65V16.5H118.715Z" fill="#FFC300"/>
</svg>
