<svg width="16" height="16" viewBox="0 0 16 16" fill="none" xmlns="http://www.w3.org/2000/svg">
  <g>
    <path d="M6.32391 0.674781C7.00238 0.674781 7.5534 1.21557 7.5534 1.8836V6.21859C7.5534 6.88566 7.00336 7.42741 6.32391 7.42741H1.9158C1.23733 7.42741 0.686316 6.88662 0.686316 6.21859C0.686316 5.55152 1.23635 5.00977 1.9158 5.00977H3.35805L1.36479 3.05097C0.904957 2.59887 0.904957 1.86529 1.36479 1.41318L1.43734 1.34185C1.66775 1.11532 1.96875 1.00253 2.27073 1.00253C2.5727 1.00253 2.8737 1.11532 3.10411 1.34185L5.09639 3.30064V1.8836C5.09639 1.21653 5.64642 0.674781 6.32587 0.674781M6.32391 0C5.3366 0 4.52184 0.738403 4.41988 1.68213L3.58845 0.864684C3.23647 0.518617 2.76781 0.327751 2.26974 0.327751C1.77168 0.327751 1.304 0.518617 0.952018 0.864684L0.879465 0.936018C0.15295 1.65032 0.15295 2.81384 0.879465 3.52814L1.71089 4.34559C0.751026 4.44584 0 5.24787 0 6.21762C0 7.25582 0.858876 8.10123 1.9158 8.10123H6.32489C7.38084 8.10123 8.24069 7.25679 8.24069 6.21762V1.8836C8.24069 0.845404 7.38182 0 6.32489 0H6.32391Z" fill="white"/>
    <path d="M14.0851 8.57259C14.7636 8.57259 15.3146 9.11338 15.3146 9.78141C15.3146 10.4494 14.7646 10.9902 14.0851 10.9902H12.6429L14.6352 12.949C15.095 13.4011 15.095 14.1347 14.6352 14.5868L14.5626 14.6582C14.3322 14.8847 14.0312 14.9975 13.7292 14.9975C13.4273 14.9975 13.1263 14.8847 12.8959 14.6582L10.9036 12.6994V14.1164C10.9036 14.7835 10.3535 15.3252 9.67409 15.3252C8.99464 15.3252 8.44461 14.7844 8.44461 14.1164V9.78141C8.44461 9.11434 8.99464 8.57259 9.67409 8.57259H14.0832M14.0851 7.89781H9.67606C8.62011 7.89781 7.76025 8.74225 7.76025 9.78141V14.1164C7.76025 15.1546 8.61913 16 9.67606 16C10.6634 16 11.4781 15.2616 11.5801 14.3179L12.4115 15.1353C12.7635 15.4814 13.2322 15.6723 13.7302 15.6723C14.2283 15.6723 14.696 15.4814 15.0479 15.1353L15.1205 15.064C15.4725 14.7179 15.6666 14.2571 15.6666 13.7684C15.6666 13.2797 15.4725 12.8189 15.1205 12.4728L14.2891 11.6554C15.2499 11.5551 16 10.7531 16 9.78334C16 8.74514 15.1411 7.89974 14.0842 7.89974L14.0851 7.89781Z" fill="#FFC300"/>
  </g>
</svg>
