<svg width="16" height="16" viewBox="0 0 16 16" fill="none" xmlns="http://www.w3.org/2000/svg">
  <path d="M8 1C6.72 1.00041 5.46504 1.36037 4.38917 2.04093C3.3133 2.72149 2.46158 3.69628 1.9354 4.86389C1.40921 6.0315 1.23219 7.34023 1.42583 8.62065C1.61948 9.90108 2.17562 11.0997 3.02424 12.1015L2 15L5.92947 14.2784C6.88195 14.7513 7.92649 15.0008 8.9853 15.0061C10.0441 15.0114 11.091 14.7725 12.0478 14.3092C13.0047 13.8458 13.8439 13.1715 14.5027 12.3379C15.1614 11.5043 15.6215 10.5341 15.848 9.49593C16.0744 8.45778 16.0609 7.38225 15.8087 6.35021C15.5566 5.31818 15.0731 4.36017 14.3952 3.54357C13.7173 2.72698 12.8636 2.07449 11.8981 1.63557C10.9325 1.19664 9.88132 0.983148 8.82364 0.991309" stroke="#FFC300" stroke-width="1.5" stroke-linecap="round" stroke-linejoin="round"/>
</svg>
