<svg width="12" height="9" fill="none" xmlns="http://www.w3.org/2000/svg"><path d="M10.802.022a1.17 1.17 0 0 0-.415.2C10.342.26 8.976 1.67 7.353 3.356a587.865 587.865 0 0 1-2.966 3.07 77.9 77.9 0 0 1-1.316-1.54A213.309 213.309 0 0 0 1.7 3.269a.986.986 0 0 0-1.228-.141c-.47.303-.614.988-.304 1.449.035.052.833 1.007 1.772 2.122 1.264 1.5 1.739 2.05 1.824 2.112a.978.978 0 0 0 1.114.022c.097-.062 6.871-7.097 6.952-7.22.118-.18.159-.332.157-.583-.001-.174-.01-.245-.045-.34a1.013 1.013 0 0 0-1.14-.668" fill="#1D1E27" fill-rule="evenodd"/></svg>