<svg width="68" height="65" viewBox="0 0 68 65" fill="none" xmlns="http://www.w3.org/2000/svg">
<path d="M33.8018 64.251C30.3638 64.251 27.1328 62.91 24.7028 60.489L3.75975 39.546C-1.25325 34.533 -1.25325 26.37 3.75975 21.348C6.18975 18.918 9.42075 17.586 12.8588 17.586C13.9208 17.586 14.9827 17.721 16.0177 17.982C16.3417 18.063 16.6658 18.099 16.9808 18.099C17.8538 18.099 18.7087 17.811 19.4107 17.262C20.3738 16.515 20.9318 15.363 20.9318 14.148V12.528C20.9318 9.18 22.2367 6.039 24.6038 3.672C26.9708 1.305 30.1118 0 33.4598 0H34.1438C37.4918 0 40.6328 1.305 42.9998 3.672C45.3668 6.039 46.6718 9.18 46.6718 12.528V14.148C46.6718 15.363 47.2298 16.515 48.1928 17.262C48.8948 17.811 49.7498 18.099 50.6228 18.099C50.9468 18.099 51.2708 18.063 51.5858 17.982C52.6208 17.721 53.6828 17.586 54.7448 17.586C58.1828 17.586 61.4138 18.927 63.8438 21.348C66.2738 23.769 67.6058 27.009 67.6058 30.447C67.6058 33.885 66.2738 37.125 63.8438 39.546L42.9008 60.489C40.4708 62.919 37.2398 64.251 33.8018 64.251Z" fill="#828289"/>
<path d="M38.4461 52.8749C38.0771 52.8749 37.7081 52.7489 37.3931 52.4969C36.9881 52.1639 35.8721 51.3809 34.2971 51.3809C32.7221 51.3809 31.6061 52.1639 31.2011 52.4969C30.4991 53.0729 29.4641 52.9829 28.8791 52.2809C28.3031 51.5789 28.4021 50.5439 29.0951 49.9589C29.9411 49.2569 31.7411 48.0869 34.2971 48.0869C36.8531 48.0869 38.6531 49.2569 39.4991 49.9589C40.2011 50.5349 40.3001 51.5789 39.7151 52.2809C39.3911 52.6769 38.9231 52.8749 38.4461 52.8749Z" fill="#1D1E27"/>
<path d="M46.3029 42.6335C43.5129 42.6335 41.2539 40.4105 41.1729 37.6475H34.2969C34.2969 42.3815 38.1309 46.2155 42.8649 46.2155C47.5989 46.2155 51.4329 42.3815 51.4329 37.6475C51.3519 40.4105 49.0929 42.6335 46.3029 42.6335Z" fill="#CBCBCB"/>
<path d="M46.3019 42.6335C49.0919 42.6335 51.3509 40.4105 51.4319 37.6475H41.1719C41.2529 40.4105 43.5119 42.6335 46.3019 42.6335Z" fill="black"/>
<path d="M29.6076 42.6335C26.8176 42.6335 24.5586 40.4105 24.4776 37.6475H17.6016C17.6016 42.3815 21.4356 46.2155 26.1696 46.2155C30.9036 46.2155 34.7376 42.3815 34.7376 37.6475C34.6566 40.4105 32.3976 42.6335 29.6076 42.6335Z" fill="#CBCBCB"/>
<path d="M29.6075 42.6335C32.3975 42.6335 34.6565 40.4105 34.7375 37.6475H24.4775C24.5585 40.4105 26.8175 42.6335 29.6075 42.6335Z" fill="black"/>
</svg>
