<svg width="68" height="65" viewBox="0 0 68 65" fill="none" xmlns="http://www.w3.org/2000/svg">
<path d="M33.804 0C37.242 0 40.473 1.341 42.903 3.762L63.846 24.705C68.859 29.718 68.859 37.881 63.846 42.903C61.416 45.333 58.185 46.665 54.747 46.665C53.685 46.665 52.623 46.53 51.588 46.269C51.264 46.188 50.94 46.152 50.625 46.152C49.752 46.152 48.897 46.44 48.195 46.989C47.232 47.736 46.674 48.888 46.674 50.103V51.723C46.674 55.071 45.369 58.212 43.002 60.579C40.635 62.946 37.494 64.251 34.146 64.251H33.462C30.114 64.251 26.973 62.946 24.606 60.579C22.239 58.212 20.934 55.071 20.934 51.723V50.103C20.934 48.888 20.376 47.736 19.413 46.989C18.711 46.44 17.856 46.152 16.983 46.152C16.659 46.152 16.335 46.188 16.02 46.269C14.985 46.53 13.923 46.665 12.861 46.665C9.42299 46.665 6.19199 45.324 3.76199 42.903C1.33199 40.473 0 37.242 0 33.804C0 30.366 1.33199 27.126 3.76199 24.705L24.705 3.762C27.135 1.332 30.366 0 33.804 0Z" fill="#828289"/>
<path d="M29.6645 26.2169C30.0335 26.2169 30.4025 26.3429 30.7175 26.5949C31.1225 26.9279 32.2385 27.7109 33.8135 27.7109C35.3885 27.7109 36.5045 26.9279 36.9095 26.5949C37.6115 26.0189 38.6465 26.1089 39.2315 26.8109C39.8075 27.5129 39.7085 28.5479 39.0155 29.1329C38.1695 29.8349 36.3695 31.0049 33.8135 31.0049C31.2575 31.0049 29.4575 29.8349 28.6115 29.1329C27.9095 28.5569 27.8105 27.5129 28.3955 26.8109C28.7195 26.4149 29.1875 26.2169 29.6645 26.2169Z" fill="#1D1E27"/>
<path d="M33.3455 22.9689C33.6155 22.1319 33.7685 21.2409 33.7685 20.3139C33.7685 20.2239 33.7595 20.1339 33.7505 20.0439C33.6875 21.0879 33.3095 22.0509 32.6885 22.8069C32.9045 22.8609 33.1385 22.9149 33.3455 22.9689Z" fill="#CBCBCB"/>
<path d="M24.1118 19.7643C24.1118 17.1003 26.2718 14.9313 28.9448 14.9313C31.0328 14.9313 32.8058 16.2633 33.4808 18.1173C32.5088 14.4453 29.1788 11.7363 25.2008 11.7363C20.4668 11.7363 16.6328 15.5703 16.6328 20.3043C16.6328 21.2763 16.8038 22.2033 17.1008 23.0763C19.0808 22.5183 21.6458 22.0233 24.6428 21.9513C24.3098 21.2943 24.1208 20.5563 24.1208 19.7643H24.1118Z" fill="#CBCBCB"/>
<path d="M28.9443 14.9307C26.2803 14.9307 24.1113 17.0907 24.1113 19.7637C24.1113 20.5467 24.3003 21.2937 24.6333 21.9507C24.8223 21.9507 25.0023 21.9327 25.2003 21.9327C28.1163 21.9147 30.6453 22.3107 32.6883 22.8057C33.3093 22.0407 33.6963 21.0867 33.7503 20.0427C33.7323 19.3857 33.6333 18.7467 33.4713 18.1257C32.7963 16.2717 31.0233 14.9397 28.9353 14.9397L28.9443 14.9307Z" fill="black"/>
<path d="M35.2619 22.9689C34.9919 22.1319 34.8389 21.2409 34.8389 20.3139C34.8389 20.2239 34.8479 20.1339 34.8569 20.0439C34.9199 21.0879 35.2979 22.0509 35.9189 22.8069C35.7029 22.8609 35.4689 22.9149 35.2619 22.9689Z" fill="#CBCBCB"/>
<path d="M44.4959 19.7643C44.4959 17.1003 42.3359 14.9313 39.6629 14.9313C37.5749 14.9313 35.802 16.2633 35.127 18.1173C36.099 14.4453 39.429 11.7363 43.407 11.7363C48.141 11.7363 51.975 15.5703 51.975 20.3043C51.975 21.2763 51.804 22.2033 51.507 23.0763C49.527 22.5183 46.9619 22.0233 43.9649 21.9513C44.2979 21.2943 44.4869 20.5563 44.4869 19.7643H44.4959Z" fill="#CBCBCB"/>
<path d="M39.6634 14.9307C42.3274 14.9307 44.4964 17.0907 44.4964 19.7637C44.4964 20.5467 44.3074 21.2937 43.9744 21.9507C43.7854 21.9507 43.6054 21.9327 43.4074 21.9327C40.4914 21.9147 37.9624 22.3107 35.9194 22.8057C35.2984 22.0407 34.9114 21.0867 34.8574 20.0427C34.8754 19.3857 34.9744 18.7467 35.1364 18.1257C35.8114 16.2717 37.5844 14.9397 39.6724 14.9397L39.6634 14.9307Z" fill="black"/>
</svg>
