<svg width="65" height="68" viewBox="0 0 65 68" fill="none" xmlns="http://www.w3.org/2000/svg">
<path d="M64.251 33.804C64.251 37.242 62.91 40.473 60.489 42.903L39.546 63.846C34.533 68.859 26.37 68.859 21.348 63.846C18.918 61.416 17.586 58.185 17.586 54.747C17.586 53.685 17.721 52.623 17.982 51.588C18.063 51.264 18.099 50.94 18.099 50.625C18.099 49.752 17.811 48.897 17.262 48.195C16.515 47.232 15.363 46.674 14.148 46.674H12.528C9.18 46.674 6.039 45.369 3.672 43.002C1.305 40.635 0 37.494 0 34.146V33.462C0 30.114 1.305 26.973 3.672 24.606C6.039 22.239 9.18 20.934 12.528 20.934H14.148C15.363 20.934 16.515 20.376 17.262 19.413C17.811 18.711 18.099 17.856 18.099 16.983C18.099 16.659 18.063 16.335 17.982 16.02C17.721 14.985 17.586 13.923 17.586 12.861C17.586 9.423 18.927 6.192 21.348 3.762C23.769 1.332 27.009 0 30.447 0C33.885 0 37.125 1.332 39.546 3.762L60.489 24.705C62.919 27.135 64.251 30.366 64.251 33.804Z" fill="#828289"/>
<path d="M37.36 42.3723C42.092 42.3723 45.928 38.5363 45.928 33.8043C45.928 29.0724 42.092 25.2363 37.36 25.2363C32.628 25.2363 28.792 29.0724 28.792 33.8043C28.792 38.5363 32.628 42.3723 37.36 42.3723Z" fill="#CBCBCB"/>
<path d="M52.3981 42.3723C57.13 42.3723 60.9661 38.5363 60.9661 33.8043C60.9661 29.0724 57.13 25.2363 52.3981 25.2363C47.6661 25.2363 43.8301 29.0724 43.8301 33.8043C43.8301 38.5363 47.6661 42.3723 52.3981 42.3723Z" fill="#CBCBCB"/>
<path d="M56.6824 38.0885C59.0484 38.0885 60.9664 36.1705 60.9664 33.8045C60.9664 31.4385 59.0484 29.5205 56.6824 29.5205C54.3165 29.5205 52.3984 31.4385 52.3984 33.8045C52.3984 36.1705 54.3165 38.0885 56.6824 38.0885Z" fill="black"/>
<path d="M41.6434 38.0885C44.0094 38.0885 45.9274 36.1705 45.9274 33.8045C45.9274 31.4385 44.0094 29.5205 41.6434 29.5205C39.2774 29.5205 37.3594 31.4385 37.3594 33.8045C37.3594 36.1705 39.2774 38.0885 41.6434 38.0885Z" fill="black"/>
<path d="M36.2436 45.2882C36.6126 45.2882 36.9816 45.4142 37.2966 45.6662C37.7016 45.9992 38.8176 46.7822 40.3926 46.7822C41.9676 46.7822 43.0836 45.9992 43.4886 45.6662C44.1906 45.0902 45.2256 45.1802 45.8106 45.8822C46.3866 46.5842 46.2876 47.6192 45.5946 48.2042C44.7486 48.9062 42.9486 50.0762 40.3926 50.0762C37.8366 50.0762 36.0366 48.9062 35.1906 48.2042C34.4886 47.6282 34.3896 46.5842 34.9746 45.8822C35.2986 45.4862 35.7666 45.2882 36.2436 45.2882Z" fill="#1D1E27"/>
</svg>
