<svg width="65" height="68" viewBox="0 0 65 68" fill="none" xmlns="http://www.w3.org/2000/svg">
<path d="M64.251 33.804C64.251 37.242 62.91 40.473 60.489 42.903L39.546 63.846C34.533 68.859 26.37 68.859 21.348 63.846C18.918 61.416 17.586 58.185 17.586 54.747C17.586 53.685 17.721 52.623 17.982 51.588C18.063 51.264 18.099 50.94 18.099 50.625C18.099 49.752 17.811 48.897 17.262 48.195C16.515 47.232 15.363 46.674 14.148 46.674H12.528C9.18 46.674 6.039 45.369 3.672 43.002C1.305 40.635 0 37.494 0 34.146V33.462C0 30.114 1.305 26.973 3.672 24.606C6.039 22.239 9.18 20.934 12.528 20.934H14.148C15.363 20.934 16.515 20.376 17.262 19.413C17.811 18.711 18.099 17.856 18.099 16.983C18.099 16.659 18.063 16.335 17.982 16.02C17.721 14.985 17.586 13.923 17.586 12.861C17.586 9.423 18.927 6.192 21.348 3.762C23.769 1.332 27.009 0 30.447 0C33.885 0 37.125 1.332 39.546 3.762L60.489 24.705C62.919 27.135 64.251 30.366 64.251 33.804Z" fill="url(#paint0_radial_8818_8063)"/>
<path d="M37.359 42.3723C42.091 42.3723 45.927 38.5363 45.927 33.8043C45.927 29.0724 42.091 25.2363 37.359 25.2363C32.627 25.2363 28.791 29.0724 28.791 33.8043C28.791 38.5363 32.627 42.3723 37.359 42.3723Z" fill="white"/>
<path d="M52.3981 42.3723C57.13 42.3723 60.9661 38.5363 60.9661 33.8043C60.9661 29.0724 57.13 25.2363 52.3981 25.2363C47.6661 25.2363 43.8301 29.0724 43.8301 33.8043C43.8301 38.5363 47.6661 42.3723 52.3981 42.3723Z" fill="white"/>
<path d="M56.6815 38.0875C59.0475 38.0875 60.9655 36.1695 60.9655 33.8035C60.9655 31.4375 59.0475 29.5195 56.6815 29.5195C54.3155 29.5195 52.3975 31.4375 52.3975 33.8035C52.3975 36.1695 54.3155 38.0875 56.6815 38.0875Z" fill="black"/>
<path d="M41.6424 38.0875C44.0084 38.0875 45.9264 36.1695 45.9264 33.8035C45.9264 31.4375 44.0084 29.5195 41.6424 29.5195C39.2764 29.5195 37.3584 31.4375 37.3584 33.8035C37.3584 36.1695 39.2764 38.0875 41.6424 38.0875Z" fill="black"/>
<path d="M36.2426 45.2882C36.6116 45.2882 36.9806 45.4142 37.2956 45.6662C37.7006 45.9992 38.8166 46.7822 40.3916 46.7822C41.9666 46.7822 43.0826 45.9992 43.4876 45.6662C44.1896 45.0902 45.2246 45.1802 45.8096 45.8822C46.3856 46.5842 46.2866 47.6192 45.5936 48.2042C44.7476 48.9062 42.9476 50.0762 40.3916 50.0762C37.8356 50.0762 36.0356 48.9062 35.1896 48.2042C34.4876 47.6282 34.3886 46.5842 34.9736 45.8822C35.2976 45.4862 35.7656 45.2882 36.2426 45.2882Z" fill="#5B4300"/>
<defs>
<radialGradient id="paint0_radial_8818_8063" cx="0" cy="0" r="1" gradientUnits="userSpaceOnUse" gradientTransform="translate(11.5629 55.2535) rotate(-45) scale(53.613 39.1375)">
<stop stop-color="#FFC300"/>
<stop offset="0.34" stop-color="#FDC001"/>
<stop offset="0.56" stop-color="#F9B707"/>
<stop offset="0.75" stop-color="#F2A810"/>
<stop offset="0.91" stop-color="#E7941E"/>
<stop offset="1" stop-color="#E18627"/>
</radialGradient>
</defs>
</svg>
