<svg width="68" height="65" viewBox="0 0 68 65" fill="none" xmlns="http://www.w3.org/2000/svg">
<path d="M33.804 0C37.242 0 40.473 1.341 42.903 3.762L63.846 24.705C68.859 29.718 68.859 37.881 63.846 42.903C61.416 45.333 58.185 46.665 54.747 46.665C53.685 46.665 52.623 46.53 51.588 46.269C51.264 46.188 50.94 46.152 50.625 46.152C49.752 46.152 48.897 46.44 48.195 46.989C47.232 47.736 46.674 48.888 46.674 50.103V51.723C46.674 55.071 45.369 58.212 43.002 60.579C40.635 62.946 37.494 64.251 34.146 64.251H33.462C30.114 64.251 26.973 62.946 24.606 60.579C22.239 58.212 20.934 55.071 20.934 51.723V50.103C20.934 48.888 20.376 47.736 19.413 46.989C18.711 46.44 17.856 46.152 16.983 46.152C16.659 46.152 16.335 46.188 16.02 46.269C14.985 46.53 13.923 46.665 12.861 46.665C9.42299 46.665 6.19199 45.324 3.76199 42.903C1.33199 40.473 0 37.242 0 33.804C0 30.366 1.33199 27.126 3.76199 24.705L24.705 3.762C27.135 1.332 30.366 0 33.804 0Z" fill="url(#paint0_radial_8818_6693)"/>
<path d="M29.6645 26.2169C30.0335 26.2169 30.4025 26.3429 30.7175 26.5949C31.1225 26.9279 32.2385 27.7109 33.8135 27.7109C35.3885 27.7109 36.5045 26.9279 36.9095 26.5949C37.6115 26.0189 38.6465 26.1089 39.2315 26.8109C39.8075 27.5129 39.7085 28.5479 39.0155 29.1329C38.1695 29.8349 36.3695 31.0049 33.8135 31.0049C31.2575 31.0049 29.4575 29.8349 28.6115 29.1329C27.9095 28.5569 27.8105 27.5129 28.3955 26.8109C28.7195 26.4149 29.1875 26.2169 29.6645 26.2169Z" fill="#006331"/>
<path d="M33.3445 22.9689C33.6145 22.1319 33.7675 21.2409 33.7675 20.3139C33.7675 20.2239 33.7585 20.1339 33.7495 20.0439C33.6865 21.0879 33.3085 22.0509 32.6875 22.8069C32.9035 22.8609 33.1375 22.9149 33.3445 22.9689Z" fill="white"/>
<path d="M24.1108 19.7643C24.1108 17.1003 26.2708 14.9313 28.9438 14.9313C31.0318 14.9313 32.8048 16.2633 33.4798 18.1173C32.5078 14.4453 29.1778 11.7363 25.1998 11.7363C20.4658 11.7363 16.6318 15.5703 16.6318 20.3043C16.6318 21.2763 16.8028 22.2033 17.0998 23.0763C19.0798 22.5183 21.6448 22.0233 24.6418 21.9513C24.3088 21.2943 24.1198 20.5563 24.1198 19.7643H24.1108Z" fill="white"/>
<path d="M33.7675 19.764C33.7675 19.188 33.6595 18.639 33.4795 18.126C33.6415 18.738 33.7405 19.377 33.7585 20.043C33.7585 19.953 33.7765 19.863 33.7765 19.773L33.7675 19.764Z" fill="black"/>
<path d="M28.9433 14.9316C26.2793 14.9316 24.1104 17.0916 24.1104 19.7646C24.1104 20.5476 24.2994 21.2946 24.6324 21.9516C24.8214 21.9516 25.0014 21.9336 25.1994 21.9336C28.1154 21.9156 30.6444 22.3116 32.6874 22.8066C33.3084 22.0416 33.6954 21.0876 33.7494 20.0436C33.7314 19.3866 33.6323 18.7476 33.4703 18.1266C32.7953 16.2726 31.0224 14.9406 28.9344 14.9406L28.9433 14.9316Z" fill="black"/>
<path d="M35.2619 22.9689C34.9919 22.1319 34.8389 21.2409 34.8389 20.3139C34.8389 20.2239 34.8479 20.1339 34.8569 20.0439C34.9199 21.0879 35.2979 22.0509 35.9189 22.8069C35.7029 22.8609 35.4689 22.9149 35.2619 22.9689Z" fill="white"/>
<path d="M44.4959 19.7643C44.4959 17.1003 42.3359 14.9313 39.6629 14.9313C37.5749 14.9313 35.802 16.2633 35.127 18.1173C36.099 14.4453 39.429 11.7363 43.407 11.7363C48.141 11.7363 51.975 15.5703 51.975 20.3043C51.975 21.2763 51.804 22.2033 51.507 23.0763C49.527 22.5183 46.9619 22.0233 43.9649 21.9513C44.2979 21.2943 44.4869 20.5563 44.4869 19.7643H44.4959Z" fill="white"/>
<path d="M34.8303 19.764C34.8303 19.188 34.9383 18.639 35.1183 18.126C34.9563 18.738 34.8573 19.377 34.8393 20.043C34.8393 19.953 34.8213 19.863 34.8213 19.773L34.8303 19.764Z" fill="black"/>
<path d="M39.6634 14.9307C42.3274 14.9307 44.4964 17.0907 44.4964 19.7637C44.4964 20.5467 44.3074 21.2937 43.9744 21.9507C43.7854 21.9507 43.6054 21.9327 43.4074 21.9327C40.4914 21.9147 37.9624 22.3107 35.9194 22.8057C35.2984 22.0407 34.9114 21.0867 34.8574 20.0427C34.8754 19.3857 34.9744 18.7467 35.1364 18.1257C35.8114 16.2717 37.5844 14.9397 39.6724 14.9397L39.6634 14.9307Z" fill="black"/>
<defs>
<radialGradient id="paint0_radial_8818_6693" cx="0" cy="0" r="1" gradientUnits="userSpaceOnUse" gradientTransform="translate(17.8485 50.9653) rotate(-47.16) scale(53.613 39.1375)">
<stop stop-color="#00FF85"/>
<stop offset="0.31" stop-color="#00FC86"/>
<stop offset="0.5" stop-color="#00F38A"/>
<stop offset="0.67" stop-color="#00E491"/>
<stop offset="0.81" stop-color="#00CF9B"/>
<stop offset="0.95" stop-color="#00B5A8"/>
<stop offset="1" stop-color="#00A9AE"/>
</radialGradient>
</defs>
</svg>
