<svg width="109" height="112" viewBox="0 0 109 112" fill="none" xmlns="http://www.w3.org/2000/svg">
<path d="M43.079 4.72375C47.7009 4.72375 51.4544 8.50949 51.4544 13.186V43.5327C51.4544 48.2024 47.7075 51.9949 43.079 51.9949H13.0506C8.4288 51.9949 4.67525 48.2092 4.67525 43.5327C4.67525 38.8629 8.42212 35.0704 13.0506 35.0704H22.8753L9.29706 21.3581C6.16465 18.1932 6.16465 13.0578 9.29706 9.89287L9.7913 9.39351C11.3608 7.80768 13.4113 7.01814 15.4684 7.01814C17.5255 7.01814 19.5759 7.80768 21.1455 9.39351L34.717 23.1059V13.186C34.717 8.51624 38.4639 4.72375 43.0924 4.72375M43.079 0C36.3534 0 30.8032 5.16913 30.1086 11.7756L24.4449 6.05314C22.0471 3.63054 18.8546 2.29439 15.4617 2.29439C12.0688 2.29439 8.88297 3.63054 6.48523 6.05314L5.99099 6.55251C1.04191 11.5529 1.04191 19.698 5.99099 24.6984L11.6547 30.4209C5.11606 31.1227 0 36.7372 0 43.5259C0 50.7938 5.85074 56.7119 13.0506 56.7119H43.0857C50.2789 56.7119 56.1363 50.8005 56.1363 43.5259V13.186C56.1363 5.91818 50.2856 0 43.0857 0H43.079Z" fill="white"/>
<path d="M95.9494 60.0118C100.571 60.0118 104.325 63.7975 104.325 68.4741C104.325 73.1506 100.578 76.9363 95.9494 76.9363H86.1247L99.6962 90.6487C102.829 93.8136 102.829 98.949 99.6962 102.114L99.202 102.613C97.6325 104.199 95.582 104.989 93.5249 104.989C91.4678 104.989 89.4174 104.199 87.8478 102.613L74.2763 88.9009V98.8207C74.2763 103.491 70.5294 107.283 65.9009 107.283C61.2724 107.283 57.5255 103.497 57.5255 98.8207V68.4741C57.5255 63.8043 61.2724 60.0118 65.9009 60.0118H95.936M95.9494 55.2881H65.9143C58.7211 55.2881 52.8636 61.1995 52.8636 68.4741V98.8207C52.8636 106.089 58.7144 112.007 65.9143 112.007C72.6399 112.007 78.1901 106.838 78.8847 100.231L84.5484 105.954C86.9462 108.376 90.1387 109.712 93.5316 109.712C96.9245 109.712 100.11 108.376 102.508 105.954L103.002 105.454C105.4 103.032 106.722 99.806 106.722 96.3846C106.722 92.9633 105.4 89.7377 103.002 87.315L97.3386 81.5926C103.884 80.8908 108.993 75.2762 108.993 68.4875C108.993 61.2197 103.143 55.3015 95.9427 55.3015L95.9494 55.2881Z" fill="#FFC300"/>
</svg>
