<svg width="40" height="40" viewBox="0 0 40 40" fill="none" xmlns="http://www.w3.org/2000/svg">
<path d="M39.8801 18.71C39.5101 16.18 38.4401 14.43 38.2001 14.04C37.7701 13.35 35.9701 10.63 32.6201 9.19998C30.5501 8.30998 29.4501 8.57998 27.8501 7.19998C26.8101 6.29998 26.2401 5.29998 26.0001 4.83998C25.2901 3.45998 25.1501 2.17998 25.1301 1.47998H14.8901C14.8701 2.18998 14.7301 3.45998 14.0201 4.83998C13.7901 5.29998 13.2101 6.29998 12.1701 7.19998C10.5701 8.57998 9.47008 8.30998 7.40008 9.19998C4.05008 10.64 2.25008 13.35 1.82008 14.04C1.58008 14.43 0.510079 16.18 0.140079 18.71C-0.549921 23.38 1.59008 27.11 2.60008 28.88C4.43008 32.07 6.89008 34.31 9.16008 35.84C11.7901 37.62 14.9201 38.52 18.0901 38.52H21.9101C25.0901 38.52 28.2101 37.62 30.8401 35.84C33.1101 34.31 35.5701 32.08 37.4001 28.88C38.4101 27.12 40.5501 23.38 39.8601 18.71H39.8801Z" fill="url(#paint0_linear_8879_8309)"/>
<defs>
<linearGradient id="paint0_linear_8879_8309" x1="1.25008" y1="15.09" x2="40.0301" y2="24.93" gradientUnits="userSpaceOnUse">
<stop stop-color="white"/>
<stop offset="0.27" stop-color="#F6F6F6"/>
<stop offset="0.68" stop-color="#E1E1E1"/>
<stop offset="1" stop-color="#CCCCCC"/>
</linearGradient>
</defs>
</svg>
