<svg width="40" height="40" viewBox="0 0 40 40" fill="none" xmlns="http://www.w3.org/2000/svg">
<g clip-path="url(#clip0_8883_9117)">
<path d="M26.8249 14.67L20.0049 14.38L13.1849 14.67C9.82486 16.7 10.5949 20.11 10.5949 20.11C10.5949 20.11 12.4749 27.68 11.5349 31.03C10.5949 34.38 11.5349 36.46 11.5349 36.46C13.4149 40.51 19.9949 39.98 19.9949 39.98C19.9949 39.98 26.5949 40.51 28.4749 36.46C28.4749 36.46 29.4149 34.38 28.4749 31.03C27.5349 27.68 29.4149 20.11 29.4149 20.11C29.4149 20.11 30.1749 16.7 26.8249 14.68V14.67Z" fill="url(#paint0_linear_8883_9117)"/>
<path d="M25.3249 7.37C25.1749 6.51 23.3049 5.91 22.1449 5.01C21.9049 4.82 21.7449 4.63 21.6349 4.41C21.1849 3.54 21.8649 2.85 21.6249 1.41C21.5049 0.690003 21.2549 0.440003 21.1449 0.340003C20.7549 0.0200028 20.2749 2.77231e-06 20.0549 2.77231e-06C19.8449 2.77231e-06 19.3449 -0.0199972 18.9449 0.300003C18.5549 0.610003 18.4549 1.07 18.3849 1.42C18.1049 2.82 18.8349 3.51 18.3749 4.42C18.2649 4.63 18.1049 4.83 17.8649 5.02C16.7049 5.92 14.8349 6.52 14.6849 7.38C14.5349 8.24 14.4949 10.19 14.4949 10.19L20.0049 9.82L25.5149 10.19C25.5149 10.19 25.4749 8.24 25.3249 7.38V7.37Z" fill="url(#paint1_linear_8883_9117)"/>
<path d="M26.3548 11.09H26.4448V10.28C26.4448 9.97999 26.2048 9.73999 25.9048 9.73999H14.1048C13.8048 9.73999 13.5648 9.97999 13.5648 10.28V11.09H13.1848V14.68H26.8248V11.56C26.8248 11.3 26.6148 11.09 26.3548 11.09Z" fill="url(#paint2_linear_8883_9117)"/>
</g>
<defs>
<linearGradient id="paint0_linear_8883_9117" x1="10.5149" y1="27.19" x2="29.4849" y2="27.19" gradientUnits="userSpaceOnUse">
<stop stop-color="#FFEFC7"/>
<stop offset="0.23" stop-color="#F7E7BE"/>
<stop offset="0.58" stop-color="#E2D2A9"/>
<stop offset="1" stop-color="#C2B186"/>
</linearGradient>
<linearGradient id="paint1_linear_8883_9117" x1="14.4849" y1="5.09" x2="25.5149" y2="5.09" gradientUnits="userSpaceOnUse">
<stop stop-color="#FFC300"/>
<stop offset="0.31" stop-color="#FFBA00"/>
<stop offset="0.79" stop-color="#FFA500"/>
<stop offset="1" stop-color="#FF9900"/>
</linearGradient>
<linearGradient id="paint2_linear_8883_9117" x1="13.1748" y1="12.2" x2="26.8248" y2="12.2" gradientUnits="userSpaceOnUse">
<stop stop-color="#ADE0FF"/>
<stop offset="1" stop-color="#55B0E6"/>
</linearGradient>
<clipPath id="clip0_8883_9117">
<rect width="18.97" height="40" fill="white" transform="translate(10.5149)"/>
</clipPath>
</defs>
</svg>
