<svg width="40" height="40" viewBox="0 0 40 40" fill="none" xmlns="http://www.w3.org/2000/svg">
<path d="M19.996 32.0559C12.836 32.0559 7.02002 25.4159 7.02002 17.2479C7.02002 9.07994 12.836 2.43994 19.996 2.43994C27.156 2.43994 32.972 9.07994 32.972 17.2479C32.972 25.4159 27.148 32.0559 19.996 32.0559ZM19.996 4.83994C14.164 4.83994 9.42002 10.4079 9.42002 17.2479C9.42002 24.0879 14.164 29.6559 19.996 29.6559C25.828 29.6559 30.572 24.0879 30.572 17.2479C30.572 10.4079 25.828 4.83994 19.996 4.83994Z" fill="#181721"/>
<path d="M22.708 26.296L37.796 18.896L37.388 16.08C37.148 14.424 35.724 13.2 34.052 13.2H5.94004C4.26804 13.2 2.84404 14.424 2.60404 16.08L2.19604 18.896L17.284 26.296C18.996 27.136 20.996 27.136 22.7 26.296H22.708Z" fill="url(#paint0_linear_8871_8952)"/>
<path d="M37.7961 18.8959L22.7081 26.2959C20.9961 27.1359 18.9961 27.1359 17.2921 26.2959L2.19607 18.8959L0.0360668 33.7039C-0.259933 35.7359 1.31607 37.5599 3.37207 37.5599H36.6281C38.6841 37.5599 40.2601 35.7359 39.9641 33.7039L37.7961 18.8879V18.8959Z" fill="url(#paint1_linear_8871_8952)"/>
<path d="M19.9959 24.936C20.694 24.936 21.2599 24.37 21.2599 23.672C21.2599 22.9739 20.694 22.408 19.9959 22.408C19.2978 22.408 18.7319 22.9739 18.7319 23.672C18.7319 24.37 19.2978 24.936 19.9959 24.936Z" fill="#FFCE00"/>
<defs>
<linearGradient id="paint0_linear_8871_8952" x1="5.97204" y1="11.208" x2="38.716" y2="25.168" gradientUnits="userSpaceOnUse">
<stop stop-color="#1B161F"/>
<stop offset="0.64" stop-color="#3A3446"/>
<stop offset="1" stop-color="#484257"/>
</linearGradient>
<linearGradient id="paint1_linear_8871_8952" x1="1.89207" y1="28.2319" x2="42.9241" y2="28.2319" gradientUnits="userSpaceOnUse">
<stop stop-color="#181721"/>
<stop offset="0.25" stop-color="#1B1924"/>
<stop offset="0.49" stop-color="#252330"/>
<stop offset="0.72" stop-color="#363243"/>
<stop offset="0.94" stop-color="#4D475D"/>
<stop offset="1" stop-color="#554E66"/>
</linearGradient>
</defs>
</svg>
