<svg width="40" height="40" viewBox="0 0 40 40" fill="none" xmlns="http://www.w3.org/2000/svg">
<g clip-path="url(#clip0_8879_8338)">
<path d="M30.9948 36.67H8.40479V0H30.9948C31.8548 0 32.5448 0.7 32.5448 1.55V35.11C32.5448 35.97 31.8448 36.66 30.9948 36.66V36.67Z" fill="url(#paint0_linear_8879_8338)"/>
<path d="M8.40489 36.67H6.59489C6.27489 36.67 6.01489 36.41 6.01489 36.09V0.4C6.01489 0.18 6.19489 0 6.41489 0H8.40489V36.67Z" fill="url(#paint1_linear_8879_8338)"/>
<path d="M27.8849 0H26.5549V36.67H27.8849V0Z" fill="#1D1E27"/>
<path d="M32.5449 2.78002H33.7149C33.8649 2.78002 33.9849 2.90002 33.9849 3.05002V4.54002C33.9849 4.69002 33.8649 4.81002 33.7149 4.81002H32.5449V2.77002V2.78002Z" fill="#85FFBF"/>
<path d="M32.5449 5.77002H33.7049C33.8549 5.77002 33.9849 5.89002 33.9849 6.05002V7.53002C33.9849 7.68002 33.8649 7.81002 33.7049 7.81002H32.5449V5.77002Z" fill="#A98AFF"/>
<path d="M10.8249 40L9.81492 38.67L8.79492 40V36.67H10.8249V40Z" fill="#FF2C50"/>
<g clip-path="url(#clip1_8879_8338)">
<path d="M23.755 3.79004H11.265C11.0219 3.79004 10.825 3.98703 10.825 4.23004V9.55004C10.825 9.79304 11.0219 9.99004 11.265 9.99004H23.755C23.998 9.99004 24.195 9.79304 24.195 9.55004V4.23004C24.195 3.98703 23.998 3.79004 23.755 3.79004Z" fill="white"/>
</g>
</g>
<defs>
<linearGradient id="paint0_linear_8879_8338" x1="8.40479" y1="18.34" x2="32.5448" y2="18.34" gradientUnits="userSpaceOnUse">
<stop stop-color="#FFC300"/>
<stop offset="0.31" stop-color="#FFBA00"/>
<stop offset="0.79" stop-color="#FFA500"/>
<stop offset="1" stop-color="#FF9900"/>
</linearGradient>
<linearGradient id="paint1_linear_8879_8338" x1="6.01489" y1="0" x2="8.40489" y2="0" gradientUnits="userSpaceOnUse">
<stop stop-color="#FFC300"/>
<stop offset="0.31" stop-color="#FFBA00"/>
<stop offset="0.79" stop-color="#FFA500"/>
<stop offset="1" stop-color="#FF9900"/>
</linearGradient>
<clipPath id="clip0_8879_8338">
<rect width="40" height="40" fill="white"/>
</clipPath>
<clipPath id="clip1_8879_8338">
<rect width="13.37" height="6.2" fill="white" transform="translate(10.825 3.79004)"/>
</clipPath>
</defs>
</svg>
