<svg width="40" height="40" viewBox="0 0 40 40" fill="none" xmlns="http://www.w3.org/2000/svg">
<g clip-path="url(#clip0_8871_9113)">
<path d="M40 13.4161C40 8.8001 36.256 5.0481 31.632 5.0481H8.368C3.744 5.0481 0 8.7921 0 13.4161V14.8481H40V13.4161Z" fill="url(#paint0_linear_8871_9113)"/>
<path d="M0 14.848V26.592C0 31.208 3.744 34.96 8.368 34.96H31.64C36.256 34.96 40.008 31.216 40.008 26.592V14.848H0Z" fill="url(#paint1_linear_8871_9113)"/>
<path d="M11.6719 15.984H28.3359C28.9599 15.984 29.4719 15.472 29.4719 14.848H10.5359C10.5359 15.472 11.0479 15.984 11.6719 15.984Z" fill="#E2E2E2"/>
<path d="M28.3279 13.712H11.6719C11.0479 13.712 10.5359 14.224 10.5359 14.848H29.4719C29.4719 14.224 28.9599 13.712 28.3359 13.712H28.3279Z" fill="#E2E2E2"/>
<path d="M20.0001 20.256C20.3138 20.256 20.5681 20.0017 20.5681 19.688C20.5681 19.3743 20.3138 19.12 20.0001 19.12C19.6864 19.12 19.4321 19.3743 19.4321 19.688C19.4321 20.0017 19.6864 20.256 20.0001 20.256Z" fill="#00FF5D"/>
<path d="M40 14.744H0V14.944H40V14.744Z" fill="#D3D3D3"/>
</g>
<defs>
<linearGradient id="paint0_linear_8871_9113" x1="20" y1="9.9441" x2="39.536" y2="9.9441" gradientUnits="userSpaceOnUse">
<stop stop-color="white"/>
<stop offset="0.27" stop-color="#F6F6F6"/>
<stop offset="0.68" stop-color="#E1E1E1"/>
<stop offset="1" stop-color="#CCCCCC"/>
</linearGradient>
<linearGradient id="paint1_linear_8871_9113" x1="0" y1="24.904" x2="40.112" y2="24.904" gradientUnits="userSpaceOnUse">
<stop stop-color="white"/>
<stop offset="0.27" stop-color="#F6F6F6"/>
<stop offset="0.68" stop-color="#E1E1E1"/>
<stop offset="1" stop-color="#CCCCCC"/>
</linearGradient>
<clipPath id="clip0_8871_9113">
<rect width="40" height="40" fill="white"/>
</clipPath>
</defs>
</svg>
