<svg width="40" height="40" viewBox="0 0 40 40" fill="none" xmlns="http://www.w3.org/2000/svg">
<g clip-path="url(#clip0_8871_9092)">
<path d="M2.87208 23.0745L0.736081 24.5385C0.736081 24.5385 -0.135919 25.0665 0.016081 25.7865C0.128081 26.2745 1.29608 26.4505 2.02408 26.5065C2.38408 26.5385 2.73608 26.4025 2.98408 26.1465L5.43208 23.6345L2.87208 23.0745Z" fill="url(#paint0_linear_8871_9092)"/>
<path d="M37.1279 23.0745L39.2639 24.5385C39.2639 24.5385 40.1359 25.0665 39.9839 25.7865C39.8719 26.2745 38.7039 26.4505 37.9759 26.5065C37.6159 26.5385 37.2639 26.4025 37.0159 26.1465L34.5679 23.6345L37.1279 23.0745Z" fill="url(#paint1_linear_8871_9092)"/>
<path d="M3.56806 15.7385C3.08806 16.0505 2.64006 16.4265 2.36806 17.0025C1.80006 18.1865 2.22406 19.6185 2.84006 20.6745L11.9441 15.0985C9.36806 14.3945 6.06406 14.1305 3.56806 15.7385Z" fill="#494949"/>
<path opacity="0.8" d="M16.9121 18.3464C16.7761 17.3944 15.8721 16.8104 15.4641 16.5464C14.7921 16.1144 13.5041 15.5304 11.9521 15.0984L2.84009 20.6744C3.00009 20.9464 3.17609 21.2024 3.34409 21.4184C3.59209 21.7224 4.28809 22.5144 5.81609 23.1704C9.00809 24.5304 13.5281 24.2984 15.4241 22.0984C16.1121 21.2904 16.6481 20.0024 16.8561 19.0824C16.9041 18.8664 16.9441 18.6424 16.9041 18.3624L16.9121 18.3464Z" fill="#2A2B2D"/>
<path d="M24.5362 16.5384C24.1282 16.8024 23.2242 17.3864 23.0882 18.3384C23.0482 18.6184 23.0882 18.8504 23.1362 19.0584C23.2802 19.6824 23.5761 20.4824 23.9681 21.1864L34.3361 14.8424C30.5521 13.8664 26.0242 15.5784 24.5362 16.5384Z" fill="#494949"/>
<path opacity="0.8" d="M37.632 16.9944C37.352 16.4184 36.912 16.0424 36.432 15.7304C35.784 15.3144 35.072 15.0344 34.336 14.8424L23.968 21.1864C24.152 21.5144 24.352 21.8184 24.568 22.0744C26.464 24.2824 30.984 24.5064 34.176 23.1464C35.712 22.4904 36.4 21.7064 36.648 21.3944C37.488 20.3544 38.352 18.4744 37.632 16.9784V16.9944Z" fill="#2A2B2D"/>
<path d="M39.6718 16.9544C38.6318 13.8184 33.0318 13.3624 30.3598 13.5144C26.5358 13.7384 23.7198 15.5064 22.2958 16.5784H17.7198C16.2798 15.5064 13.4638 13.7384 9.63985 13.5144C6.96785 13.3624 1.36785 13.8184 0.327845 16.9544C-0.160155 18.4424 0.751845 20.7064 1.55985 21.8024C1.80785 22.1384 2.09585 22.4264 2.09585 22.4264C2.09585 22.4264 2.98385 23.3384 4.36785 23.9144C11.7198 26.9704 16.4878 23.4344 16.4878 23.4344C18.7758 20.4584 18.8318 18.6504 19.9998 18.5464C21.1678 18.6504 21.2238 20.4584 23.5118 23.4344C23.5118 23.4344 28.2798 26.9704 35.6318 23.9144C37.0158 23.3384 37.9038 22.4264 37.9038 22.4264C37.9038 22.4264 38.1918 22.1304 38.4398 21.8024C39.2558 20.7064 40.1678 18.4424 39.6718 16.9544ZM16.8638 19.0664C16.6558 19.9864 16.1198 21.2824 15.4318 22.0824C13.5358 24.2904 9.01585 24.5144 5.82385 23.1544C4.28785 22.4984 3.59985 21.7144 3.35185 21.4024C3.17585 21.1864 3.00785 20.9384 2.84785 20.6584C2.23185 19.5944 1.79985 18.1704 2.37585 16.9864C2.65585 16.4104 3.09585 16.0344 3.57585 15.7224C6.06385 14.1144 9.37584 14.3784 11.9518 15.0824C13.5118 15.5064 14.7998 16.0984 15.4638 16.5304C15.8718 16.7944 16.7758 17.3784 16.9118 18.3304C16.9518 18.6104 16.9118 18.8424 16.8638 19.0504V19.0664ZM36.6558 21.4104C36.4078 21.7144 35.7118 22.5064 34.1838 23.1624C30.9918 24.5224 26.4718 24.2904 24.5758 22.0904C24.3518 21.8344 24.1518 21.5224 23.9678 21.2024C23.5758 20.4984 23.2798 19.7064 23.1358 19.0744C23.0878 18.8584 23.0478 18.6344 23.0878 18.3544C23.2238 17.4024 24.1278 16.8184 24.5358 16.5544C26.0238 15.5944 30.5518 13.8824 34.3358 14.8584C35.0718 15.0504 35.7758 15.3304 36.4318 15.7464C36.9118 16.0584 37.3598 16.4344 37.6318 17.0104C38.3518 18.5064 37.4878 20.3864 36.6478 21.4264L36.6558 21.4104Z" fill="url(#paint2_linear_8871_9092)"/>
</g>
<defs>
<linearGradient id="paint0_linear_8871_9092" x1="8.10421e-05" y1="24.7945" x2="5.43208" y2="24.7945" gradientUnits="userSpaceOnUse">
<stop stop-color="#AD0017"/>
<stop offset="0.19" stop-color="#B50018"/>
<stop offset="0.49" stop-color="#CA001B"/>
<stop offset="0.85" stop-color="#EE0020"/>
<stop offset="1" stop-color="#FF0023"/>
</linearGradient>
<linearGradient id="paint1_linear_8871_9092" x1="34.5679" y1="24.7945" x2="39.9999" y2="24.7945" gradientUnits="userSpaceOnUse">
<stop stop-color="#AD0017"/>
<stop offset="0.19" stop-color="#B50018"/>
<stop offset="0.49" stop-color="#CA001B"/>
<stop offset="0.85" stop-color="#EE0020"/>
<stop offset="1" stop-color="#FF0023"/>
</linearGradient>
<linearGradient id="paint2_linear_8871_9092" x1="4.70385" y1="10.7624" x2="39.7518" y2="29.2344" gradientUnits="userSpaceOnUse">
<stop stop-color="#AD0017"/>
<stop offset="0.19" stop-color="#B50018"/>
<stop offset="0.49" stop-color="#CA001B"/>
<stop offset="0.85" stop-color="#EE0020"/>
<stop offset="1" stop-color="#FF0023"/>
</linearGradient>
<clipPath id="clip0_8871_9092">
<rect width="40" height="40" fill="white"/>
</clipPath>
</defs>
</svg>
