<svg width="40" height="40" viewBox="0 0 40 40" fill="none" xmlns="http://www.w3.org/2000/svg">
<path d="M16.2391 5H23.7391C23.9991 5 24.1991 5.21 24.1991 5.46V6.68H15.7791V5.46C15.7791 5.2 15.9891 5 16.2391 5Z" fill="#000BD8"/>
<path d="M22.1792 0H17.7992C17.5192 0 17.2692 0.21 17.2392 0.49L16.6392 5H23.3392L22.7392 0.49C22.6992 0.21 22.4592 0 22.1792 0Z" fill="#000BD8"/>
<path d="M33.7993 21.74C32.8593 12.56 28.3693 8.47998 26.3293 7.07998C25.7493 6.67998 25.0693 6.47998 24.3793 6.47998H15.6193C14.9193 6.47998 14.2393 6.68998 13.6693 7.07998C11.6293 8.47998 7.13927 12.56 6.19927 21.74C5.36927 29.82 6.37927 34.99 7.21927 37.7C7.64927 39.08 8.93927 40 10.3793 40H19.9993H29.6193C31.0593 40 32.3493 39.08 32.7793 37.7C33.6293 34.99 34.6293 29.82 33.7993 21.74ZM31.8593 24.9C31.8093 26.29 30.6693 27.38 29.2993 27.38C29.1193 27.38 28.9693 27.38 28.5993 27.16C27.4693 26.46 26.7693 25.22 26.7293 23.9C26.6293 19.56 24.6693 15.79 24.6493 15.75C23.9893 14.5 24.4693 12.95 25.7193 12.28C26.9693 11.62 28.5193 12.09 29.1793 13.34C29.2993 13.56 32.0493 18.82 31.8493 24.9H31.8593Z" fill="url(#paint0_linear_8883_9086)"/>
<path d="M15.0192 11.78C10.3492 13.1 9.56922 21.11 9.46922 22.2C9.23922 24.6 8.53922 31.73 13.3192 34.77C16.6592 36.89 22.0592 36.64 24.2092 33.79C25.3192 32.32 25.2792 30.52 25.2692 30.1C25.1992 27.14 23.0792 26.4 21.6292 23.24C19.2492 18.04 21.8092 14.34 19.2092 12.37C17.5392 11.1 15.2592 11.72 15.0292 11.78H15.0192Z" fill="white"/>
<defs>
<linearGradient id="paint0_linear_8883_9086" x1="5.87927" y1="23.24" x2="34.1093" y2="23.24" gradientUnits="userSpaceOnUse">
<stop stop-color="#80CFFF"/>
<stop offset="1" stop-color="#1297E6"/>
</linearGradient>
</defs>
</svg>
