<svg width="40" height="40" viewBox="0 0 40 40" fill="none" xmlns="http://www.w3.org/2000/svg">
<path d="M34.4479 0H5.55188C4.57102 0 3.77588 0.795142 3.77588 1.776V38.224C3.77588 39.2049 4.57102 40 5.55188 40H34.4479C35.4287 40 36.2239 39.2049 36.2239 38.224V1.776C36.2239 0.795142 35.4287 0 34.4479 0Z" fill="url(#paint0_linear_8871_9136)"/>
<path d="M19.6959 35.624C26.6194 35.624 32.2319 30.0114 32.2319 23.088C32.2319 16.1646 26.6194 10.552 19.6959 10.552C12.7725 10.552 7.15991 16.1646 7.15991 23.088C7.15991 30.0114 12.7725 35.624 19.6959 35.624Z" fill="#A8A8A8"/>
<path d="M19.696 12.456C13.824 12.456 9.06396 17.216 9.06396 23.088C9.06396 23.408 9.08796 23.72 9.11196 24.032L25.352 14.088C23.712 13.056 21.776 12.448 19.696 12.448V12.456Z" fill="#494949"/>
<path d="M19.6958 33.728C25.5678 33.728 30.3278 28.968 30.3278 23.096C30.3278 19.304 28.3358 15.984 25.3438 14.104L9.11182 24.04C9.59182 29.472 14.1438 33.728 19.6958 33.728Z" fill="#2A2B2D"/>
<path d="M29.504 5.848C30.6572 5.848 31.592 4.91317 31.592 3.76C31.592 2.60683 30.6572 1.672 29.504 1.672C28.3508 1.672 27.416 2.60683 27.416 3.76C27.416 4.91317 28.3508 5.848 29.504 5.848Z" fill="#C6C6C6"/>
<path d="M25.3199 3.12H23.8639C23.6298 3.12 23.4399 3.30983 23.4399 3.54399V3.968C23.4399 4.20216 23.6298 4.39199 23.8639 4.39199H25.3199C25.5541 4.39199 25.7439 4.20216 25.7439 3.968V3.54399C25.7439 3.30983 25.5541 3.12 25.3199 3.12Z" fill="#C6C6C6"/>
<path d="M22.672 3.12H21.216C20.9818 3.12 20.792 3.30983 20.792 3.54399V3.968C20.792 4.20216 20.9818 4.39199 21.216 4.39199H22.672C22.9062 4.39199 23.096 4.20216 23.096 3.968V3.54399C23.096 3.30983 22.9062 3.12 22.672 3.12Z" fill="#C6C6C6"/>
<path d="M13.5841 1.88794H7.44806C6.65277 1.88794 6.00806 2.53265 6.00806 3.32794V4.19194C6.00806 4.98723 6.65277 5.63194 7.44806 5.63194H13.5841C14.3793 5.63194 15.0241 4.98723 15.0241 4.19194V3.32794C15.0241 2.53265 14.3793 1.88794 13.5841 1.88794Z" fill="#C6C6C6"/>
<defs>
<linearGradient id="paint0_linear_8871_9136" x1="19.9999" y1="20" x2="36.3119" y2="20" gradientUnits="userSpaceOnUse">
<stop stop-color="white"/>
<stop offset="0.27" stop-color="#F6F6F6"/>
<stop offset="0.68" stop-color="#E1E1E1"/>
<stop offset="1" stop-color="#CCCCCC"/>
</linearGradient>
</defs>
</svg>
