<svg width="40" height="40" viewBox="0 0 40 40" fill="none" xmlns="http://www.w3.org/2000/svg">
<g clip-path="url(#clip0_8871_8916)">
<path d="M38.0277 12.484C29.7877 12.484 27.1797 6.88402 26.3477 3.46802H13.6357C12.8037 6.88402 10.1957 12.484 1.95573 12.484L0.32373 34.732H18.2917L19.9957 22.252L21.6997 34.732H39.6677L38.0197 12.484H38.0277Z" fill="url(#paint0_linear_8871_8916)"/>
<path d="M38.028 12.484L37.364 3.46802H26.356C27.188 6.88402 29.796 12.484 38.036 12.484H38.028Z" fill="#53ADE5"/>
<path d="M13.6439 3.46802H2.63592L1.97192 12.484C10.2119 12.484 12.8199 6.88402 13.6519 3.46802H13.6439Z" fill="#53ADE5"/>
<path d="M0.211946 36.1241C0.0919462 37.7321 1.36395 39.1001 2.97995 39.1001H15.2679C16.6519 39.1001 17.8279 38.0761 18.0199 36.7001L18.2919 34.7321H0.323946L0.219946 36.1161L0.211946 36.1241Z" fill="#B0DDFF"/>
<path d="M21.708 34.7321L21.98 36.7001C22.164 38.0761 23.34 39.1001 24.732 39.1001H37.02C38.636 39.1001 39.908 37.7321 39.788 36.1241L39.684 34.7401H21.716L21.708 34.7321Z" fill="#B0DDFF"/>
<path d="M18.2039 0.900024H21.7959V8.06802C21.7959 10.052 20.1879 11.66 18.2039 11.66V0.900024Z" fill="#53ADE5"/>
<path d="M34.596 0.900024H5.40399C3.94799 0.900024 2.74799 2.02002 2.63599 3.46802H37.364C37.26 2.02002 36.052 0.900024 34.596 0.900024Z" fill="#B0DDFF"/>
<path d="M19.996 6.292C20.6145 6.292 21.116 5.79056 21.116 5.172C21.116 4.55344 20.6145 4.052 19.996 4.052C19.3774 4.052 18.876 4.55344 18.876 5.172C18.876 5.79056 19.3774 6.292 19.996 6.292Z" fill="#B0DDFF"/>
</g>
<defs>
<linearGradient id="paint0_linear_8871_8916" x1="1.49173" y1="13.484" x2="41.8437" y2="32.628" gradientUnits="userSpaceOnUse">
<stop stop-color="#80CFFF"/>
<stop offset="1" stop-color="#48B5F7"/>
</linearGradient>
<clipPath id="clip0_8871_8916">
<rect width="40" height="40" fill="white"/>
</clipPath>
</defs>
</svg>
