<svg width="40" height="40" viewBox="0 0 40 40" fill="none" xmlns="http://www.w3.org/2000/svg">
<g clip-path="url(#clip0_8883_8424)">
<path d="M17.8913 33.4787C17.9113 30.2487 21.2013 28.6687 21.2013 28.6687C21.2013 28.6687 24.0013 27.8387 24.5113 25.7787C24.6613 25.1587 24.7213 24.5687 24.7213 24.0187C24.7213 23.6287 24.6413 22.4287 23.9213 20.9087C22.4013 17.6987 19.5313 16.2887 19.0913 16.0787C17.4913 15.3187 16.2413 15.2787 15.9813 15.2787C15.4313 15.2787 14.8413 15.3287 14.2213 15.4887C12.1713 15.9987 11.3313 18.7987 11.3313 18.7987C11.3313 18.7987 9.75133 22.0887 6.52133 22.1087C3.29133 22.1287 1.71133 24.2487 1.71133 24.2487C-3.12867 30.0487 3.80133 36.1987 3.80133 36.1987C3.80133 36.1987 9.95133 43.1187 15.7513 38.2887C15.7513 38.2887 17.8613 36.7087 17.8913 33.4787Z" fill="url(#paint0_linear_8883_8424)"/>
<path d="M15.5412 27.5187C17.2312 27.5187 18.6012 26.1487 18.6012 24.4587C18.6012 22.7687 17.2312 21.3987 15.5412 21.3987C13.8512 21.3987 12.4812 22.7687 12.4812 24.4587C12.4812 26.1487 13.8512 27.5187 15.5412 27.5187Z" fill="#1D1E27"/>
<path d="M12.6139 32.0058L8.00352 27.3955C7.83559 27.2276 7.56333 27.2276 7.39541 27.3955L6.75194 28.039C6.58401 28.2069 6.58402 28.4791 6.75194 28.6471L11.3623 33.2574C11.5302 33.4253 11.8025 33.4253 11.9704 33.2574L12.6139 32.6139C12.7818 32.446 12.7818 32.1737 12.6139 32.0058Z" fill="#1D1E27"/>
<path d="M32.5512 5.46863L34.5312 7.44863L20.3712 21.9786C20.1812 22.1786 19.8612 22.1786 19.6712 21.9786L18.0212 20.3286C17.8312 20.1386 17.8312 19.8186 18.0212 19.6286L32.5512 5.46863Z" fill="url(#paint1_linear_8883_8424)"/>
<path d="M36.6213 0.0986746C36.7613 -0.0413254 37.0013 -0.0313254 37.1713 0.118675C37.3413 0.268675 37.5713 0.448675 37.8513 0.608675C38.1713 0.788675 38.4713 0.888675 38.7113 0.948675C38.8813 0.988675 39.0113 1.11867 39.0613 1.28867C39.1313 1.53867 39.2413 1.85867 39.4413 2.20867C39.5813 2.44867 39.7313 2.65867 39.8813 2.81867C40.0313 2.99867 40.0513 3.22867 39.9113 3.36867L36.4213 6.85867C36.4213 6.85867 36.3313 6.92867 36.2813 6.93867L34.5413 7.43867L32.5613 5.45867L33.0613 3.71867C33.0813 3.66867 33.1013 3.61867 33.1413 3.57867L36.6213 0.0986746Z" fill="url(#paint2_linear_8883_8424)"/>
<path d="M39.2603 4.00391L39.7482 4.49181C39.7977 4.54131 39.7977 4.61202 39.7482 4.66152L39.6421 4.76758C39.5926 4.81708 39.5219 4.81708 39.4724 4.76758L38.9845 4.27968L39.2603 4.00391Z" fill="#1D1E27"/>
<path d="M37.7407 5.52393L38.2286 6.01183C38.2781 6.06133 38.2781 6.13204 38.2286 6.18154L38.1226 6.2876C38.0731 6.3371 38.0024 6.3371 37.9529 6.2876L37.465 5.7997L37.7407 5.52393Z" fill="#1D1E27"/>
<path d="M35.7122 1.00391L35.2243 0.516004C35.1748 0.466506 35.1748 0.395793 35.2243 0.346296L35.3303 0.24023C35.3798 0.190732 35.4505 0.190734 35.5 0.240232L35.9879 0.728135L35.7122 1.00391Z" fill="#1D1E27"/>
<path d="M34.1919 2.52393L33.704 2.03602C33.6545 1.98652 33.6545 1.91581 33.704 1.86632L33.8101 1.76025C33.8596 1.71075 33.9303 1.71075 33.9798 1.76025L34.4677 2.24815L34.1919 2.52393Z" fill="#1D1E27"/>
<path d="M39.6312 5.0287C39.8356 5.0287 40.0012 4.86304 40.0012 4.6587C40.0012 4.45435 39.8356 4.2887 39.6312 4.2887C39.4269 4.2887 39.2612 4.45435 39.2612 4.6587C39.2612 4.86304 39.4269 5.0287 39.6312 5.0287Z" fill="#1D1E27"/>
<path d="M38.1112 6.54872C38.3156 6.54872 38.4812 6.38306 38.4812 6.17872C38.4812 5.97437 38.3156 5.80872 38.1112 5.80872C37.9069 5.80872 37.7412 5.97437 37.7412 6.17872C37.7412 6.38306 37.9069 6.54872 38.1112 6.54872Z" fill="#1D1E27"/>
<path d="M35.3412 0.738657C35.5455 0.738657 35.7112 0.573003 35.7112 0.368657C35.7112 0.164312 35.5455 -0.00134277 35.3412 -0.00134277C35.1368 -0.00134277 34.9712 0.164312 34.9712 0.368657C34.9712 0.573003 35.1368 0.738657 35.3412 0.738657Z" fill="#1D1E27"/>
<path d="M33.8212 2.25868C34.0255 2.25868 34.1912 2.09302 34.1912 1.88868C34.1912 1.68433 34.0255 1.51868 33.8212 1.51868C33.6168 1.51868 33.4512 1.68433 33.4512 1.88868C33.4512 2.09302 33.6168 2.25868 33.8212 2.25868Z" fill="#1D1E27"/>
<path d="M34.8412 2.90869L32.9412 5.85869L8.77124 29.4087" stroke="#F2F2F2" stroke-width="0.25" stroke-miterlimit="10"/>
<path d="M36.7711 1.79871L33.3211 6.23871L9.40112 30.0387" stroke="#F2F2F2" stroke-width="0.25" stroke-miterlimit="10"/>
<path d="M37.0913 5.15869L34.1413 7.05869L10.5913 31.2287" stroke="#F2F2F2" stroke-width="0.25" stroke-miterlimit="10"/>
<path d="M38.2012 3.22864L33.7612 6.67864L9.96118 30.5986" stroke="#F2F2F2" stroke-width="0.25" stroke-miterlimit="10"/>
<path d="M36.7712 2.07868C36.9258 2.07868 37.0512 1.95332 37.0512 1.79868C37.0512 1.64404 36.9258 1.51868 36.7712 1.51868C36.6166 1.51868 36.4912 1.64404 36.4912 1.79868C36.4912 1.95332 36.6166 2.07868 36.7712 2.07868Z" fill="#1D1E27"/>
<path d="M34.8413 3.18866C34.9959 3.18866 35.1213 3.0633 35.1213 2.90866C35.1213 2.75402 34.9959 2.62866 34.8413 2.62866C34.6866 2.62866 34.5613 2.75402 34.5613 2.90866C34.5613 3.0633 34.6866 3.18866 34.8413 3.18866Z" fill="#1D1E27"/>
<path d="M38.2011 3.50861C38.3558 3.50861 38.4811 3.38325 38.4811 3.22861C38.4811 3.07397 38.3558 2.94861 38.2011 2.94861C38.0465 2.94861 37.9211 3.07397 37.9211 3.22861C37.9211 3.38325 38.0465 3.50861 38.2011 3.50861Z" fill="#1D1E27"/>
<path d="M37.0913 5.43866C37.2459 5.43866 37.3713 5.3133 37.3713 5.15866C37.3713 5.00402 37.2459 4.87866 37.0913 4.87866C36.9366 4.87866 36.8113 5.00402 36.8113 5.15866C36.8113 5.3133 36.9366 5.43866 37.0913 5.43866Z" fill="#1D1E27"/>
</g>
<defs>
<linearGradient id="paint0_linear_8883_8424" x1="5.81375" y1="20.1097" x2="19.8922" y2="34.1882" gradientUnits="userSpaceOnUse">
<stop stop-color="#F5BA2F"/>
<stop offset="0.16" stop-color="#ECB22B"/>
<stop offset="0.42" stop-color="#D79E21"/>
<stop offset="0.73" stop-color="#B37D10"/>
<stop offset="1" stop-color="#8F5C00"/>
</linearGradient>
<linearGradient id="paint1_linear_8883_8424" x1="25.0186" y1="12.6285" x2="27.3662" y2="14.976" gradientUnits="userSpaceOnUse">
<stop stop-color="#554E66"/>
<stop offset="0.07" stop-color="#494358"/>
<stop offset="0.22" stop-color="#332F40"/>
<stop offset="0.39" stop-color="#24212E"/>
<stop offset="0.56" stop-color="#1A1924"/>
<stop offset="0.77" stop-color="#181721"/>
</linearGradient>
<linearGradient id="paint2_linear_8883_8424" x1="34.6" y1="2.12796" x2="37.8739" y2="5.40187" gradientUnits="userSpaceOnUse">
<stop stop-color="#F5BA2F"/>
<stop offset="0.16" stop-color="#ECB22B"/>
<stop offset="0.42" stop-color="#D79E21"/>
<stop offset="0.73" stop-color="#B37D10"/>
<stop offset="1" stop-color="#8F5C00"/>
</linearGradient>
<clipPath id="clip0_8883_8424">
<rect width="40" height="40" fill="white"/>
</clipPath>
</defs>
</svg>
