<svg width="40" height="40" viewBox="0 0 40 40" fill="none" xmlns="http://www.w3.org/2000/svg">
<path d="M39.311 21.2392L36.581 5.15925C36.201 2.89925 33.511 1.88925 31.731 3.32925L26.261 7.76925L39.311 21.2292V21.2392Z" fill="url(#paint0_linear_8889_9158)"/>
<mask id="mask0_8889_9158" style="mask-type:luminance" maskUnits="userSpaceOnUse" x="26" y="2" width="14" height="20">
<path d="M39.311 21.2392L36.581 5.15925C36.201 2.89925 33.511 1.88925 31.731 3.32925L26.261 7.76925L39.311 21.2292V21.2392Z" fill="white"/>
</mask>
<g mask="url(#mask0_8889_9158)">
<path d="M36.381 4.47924C36.381 4.47924 34.591 3.07924 33.161 5.37924C31.731 7.67924 30.301 10.0992 30.301 10.0992L39.701 22.4192L40.001 6.16924L36.381 4.47924Z" fill="#FF94B8"/>
</g>
<path d="M0.690918 21.2393L3.42092 5.15927C3.81092 2.89927 6.49092 1.88927 8.27092 3.33927L13.7409 7.77927L0.690918 21.2393Z" fill="url(#paint1_linear_8889_9158)"/>
<mask id="mask1_8889_9158" style="mask-type:luminance" maskUnits="userSpaceOnUse" x="0" y="2" width="14" height="20">
<path d="M0.690918 21.2393L3.42092 5.15927C3.81092 2.89927 6.49092 1.88927 8.27092 3.33927L13.7409 7.77927L0.690918 21.2393Z" fill="white"/>
</mask>
<g mask="url(#mask1_8889_9158)">
<path d="M3.62098 4.47924C3.62098 4.47924 5.41098 3.07924 6.84098 5.37924C8.27098 7.67924 9.70098 10.0992 9.70098 10.0992L0.300977 22.4292L0.000976562 6.16924L3.62098 4.47924Z" fill="#FF94B8"/>
</g>
<path d="M34.1911 11.6593C28.7211 5.89935 21.4611 5.58935 20.0011 5.57935C18.5311 5.58935 11.2711 5.89935 5.81107 11.6593C0.671071 17.0693 -1.97893 26.3493 1.75107 31.6793C2.50107 32.7493 3.28107 33.3393 4.22107 34.0493C8.48107 37.2593 13.1211 37.3493 20.0011 37.3393C26.8811 37.3393 31.5311 37.2593 35.7811 34.0493C36.7211 33.3393 37.5011 32.7493 38.2511 31.6793C41.9811 26.3493 39.3211 17.0693 34.1911 11.6593Z" fill="url(#paint2_linear_8889_9158)"/>
<path d="M20.371 23.5594L21.121 22.2594C21.161 22.1394 21.181 21.9894 21.121 21.8494C20.951 21.4594 20.281 21.4594 20.011 21.4594C19.441 21.4594 19.001 21.6694 18.901 21.8494C18.831 21.9794 18.851 22.0994 18.851 22.0994C18.851 22.1494 18.871 22.2094 18.901 22.2594L19.651 23.5594C19.811 23.8294 20.211 23.8294 20.361 23.5594H20.371Z" fill="#FF94B8"/>
<path d="M25.1609 22.4293C27.6627 22.4293 29.6909 20.4011 29.6909 17.8993C29.6909 15.3974 27.6627 13.3693 25.1609 13.3693C22.659 13.3693 20.6309 15.3974 20.6309 17.8993C20.6309 20.4011 22.659 22.4293 25.1609 22.4293Z" fill="white"/>
<path d="M14.8811 22.4293C17.3829 22.4293 19.4111 20.4011 19.4111 17.8993C19.4111 15.3974 17.3829 13.3693 14.8811 13.3693C12.3792 13.3693 10.3511 15.3974 10.3511 17.8993C10.3511 20.4011 12.3792 22.4293 14.8811 22.4293Z" fill="white"/>
<path d="M14.8809 21.5794C16.9133 21.5794 18.5609 19.9318 18.5609 17.8994C18.5609 15.867 16.9133 14.2194 14.8809 14.2194C12.8485 14.2194 11.2009 15.867 11.2009 17.8994C11.2009 19.9318 12.8485 21.5794 14.8809 21.5794Z" fill="#1D1E27"/>
<path d="M25.161 21.5794C27.1934 21.5794 28.841 19.9318 28.841 17.8994C28.841 15.867 27.1934 14.2194 25.161 14.2194C23.1285 14.2194 21.481 15.867 21.481 17.8994C21.481 19.9318 23.1285 21.5794 25.161 21.5794Z" fill="#1D1E27"/>
<path d="M13.7409 17.3093C14.1662 17.3093 14.5109 16.9645 14.5109 16.5393C14.5109 16.114 14.1662 15.7693 13.7409 15.7693C13.3157 15.7693 12.9709 16.114 12.9709 16.5393C12.9709 16.9645 13.3157 17.3093 13.7409 17.3093Z" fill="white"/>
<path d="M24.011 17.3093C24.4362 17.3093 24.781 16.9645 24.781 16.5393C24.781 16.114 24.4362 15.7693 24.011 15.7693C23.5857 15.7693 23.241 16.114 23.241 16.5393C23.241 16.9645 23.5857 17.3093 24.011 17.3093Z" fill="white"/>
<path d="M30.6011 22.6093L37.3511 20.4393" stroke="#231F20" stroke-width="0.25" stroke-miterlimit="10" stroke-linecap="round"/>
<path d="M30.6011 25.7194L37.3511 27.8994" stroke="#231F20" stroke-width="0.25" stroke-miterlimit="10" stroke-linecap="round"/>
<path d="M30.6011 24.1693H37.3511" stroke="#231F20" stroke-width="0.25" stroke-miterlimit="10" stroke-linecap="round"/>
<path d="M9.40088 22.6093L2.65088 20.4393" stroke="#231F20" stroke-width="0.25" stroke-miterlimit="10" stroke-linecap="round"/>
<path d="M9.40088 25.7194L2.65088 27.8994" stroke="#231F20" stroke-width="0.25" stroke-miterlimit="10" stroke-linecap="round"/>
<path d="M9.40088 24.1693H2.65088" stroke="#231F20" stroke-width="0.25" stroke-miterlimit="10" stroke-linecap="round"/>
<defs>
<linearGradient id="paint0_linear_8889_9158" x1="26.261" y1="11.9492" x2="39.311" y2="11.9492" gradientUnits="userSpaceOnUse">
<stop stop-color="white"/>
<stop offset="0.27" stop-color="#F6F6F6"/>
<stop offset="0.68" stop-color="#E1E1E1"/>
<stop offset="1" stop-color="#CCCCCC"/>
</linearGradient>
<linearGradient id="paint1_linear_8889_9158" x1="13.7309" y1="2.65927" x2="0.690918" y2="2.65927" gradientUnits="userSpaceOnUse">
<stop stop-color="white"/>
<stop offset="0.27" stop-color="#F6F6F6"/>
<stop offset="0.68" stop-color="#E1E1E1"/>
<stop offset="1" stop-color="#CCCCCC"/>
</linearGradient>
<linearGradient id="paint2_linear_8889_9158" x1="0.0010708" y1="21.4593" x2="40.0011" y2="21.4593" gradientUnits="userSpaceOnUse">
<stop stop-color="white"/>
<stop offset="0.27" stop-color="#F6F6F6"/>
<stop offset="0.68" stop-color="#E1E1E1"/>
<stop offset="1" stop-color="#CCCCCC"/>
</linearGradient>
</defs>
</svg>
