<svg width="40" height="40" viewBox="0 0 40 40" fill="none" xmlns="http://www.w3.org/2000/svg">
<path d="M15.544 33.496H0V36.648C0 37.24 0.48 37.72 1.072 37.72H14.696C15.288 37.72 15.768 37.24 15.768 36.648V36.272C21.8 37.784 29.28 38.472 37.072 36.096C37.296 36.024 37.52 35.96 37.744 35.88C38.64 35.584 39.32 34.832 39.512 33.912C39.648 33.24 39.752 32.616 39.824 32.016C29.56 37.872 15.528 33.488 15.528 33.488L15.544 33.496Z" fill="#351E03"/>
<path d="M38.28 24.144C34.64 19.448 26.192 22.024 21.184 15.928C21.168 15.912 21.16 15.896 21.144 15.88C19.808 14.24 19.128 12.16 19.104 10.04C19.088 8.38403 19.048 6.66403 19.048 5.09603C19.048 3.54403 17.792 2.28003 16.232 2.28003H2.816C1.256 2.28003 0 3.53603 0 5.09603V33.496H15.544C15.544 33.496 29.568 37.88 39.84 32.024C39.856 31.872 39.872 31.72 39.888 31.568C40.264 27.792 39.368 25.552 38.28 24.144Z" fill="url(#paint0_linear_8871_8935)"/>
<path d="M12.7919 10.976C12.4959 10.976 12.2159 10.816 12.0719 10.536C11.8719 10.144 12.0319 9.664 12.4319 9.464C13.5039 8.928 14.6559 8.576 15.8479 8.424C16.9839 8.28 18.1359 8.32 19.2639 8.544C19.6959 8.632 19.9759 9.048 19.8959 9.488C19.8079 9.92 19.3839 10.2 18.9519 10.112C17.9919 9.92 17.0159 9.888 16.0559 10.008C15.0479 10.136 14.0719 10.432 13.1599 10.888C13.0479 10.944 12.9199 10.976 12.7999 10.976H12.7919Z" fill="white"/>
<path d="M13.8079 16.176C13.5679 16.176 13.3279 16.064 13.1679 15.856C12.9039 15.504 12.9679 15 13.3199 14.736C14.2799 14.008 15.3439 13.456 16.4799 13.088C17.5679 12.736 18.7039 12.56 19.8559 12.576C20.2959 12.576 20.6559 12.944 20.6479 13.384C20.6479 13.824 20.2639 14.168 19.8399 14.176C18.8639 14.168 17.8959 14.312 16.9759 14.608C16.0079 14.92 15.1039 15.392 14.2879 16.008C14.1439 16.12 13.9759 16.168 13.8079 16.168V16.176Z" fill="white"/>
<path d="M16.2721 20.56C16.0721 20.56 15.8721 20.488 15.7201 20.336C15.4001 20.032 15.3841 19.528 15.6881 19.208C16.5201 18.336 17.4801 17.616 18.5441 17.072C19.5681 16.552 20.6641 16.2 21.7921 16.032C22.2321 15.968 22.6321 16.264 22.7041 16.704C22.7681 17.144 22.4721 17.552 22.0321 17.616C21.0641 17.76 20.1361 18.056 19.2721 18.504C18.3681 18.968 17.5441 19.576 16.8481 20.32C16.6881 20.488 16.4801 20.568 16.2721 20.568V20.56Z" fill="white"/>
<defs>
<linearGradient id="paint0_linear_8871_8935" x1="-3.648" y1="12.152" x2="39.544" y2="32.64" gradientUnits="userSpaceOnUse">
<stop stop-color="#965F0D"/>
<stop offset="0.2" stop-color="#9B620D"/>
<stop offset="0.46" stop-color="#AC6D0E"/>
<stop offset="0.77" stop-color="#C87E10"/>
<stop offset="1" stop-color="#E38F13"/>
</linearGradient>
</defs>
</svg>
