<svg width="40" height="40" viewBox="0 0 40 40" fill="none" xmlns="http://www.w3.org/2000/svg">
<path d="M38.448 7.552H1.552C0.694854 7.552 0 8.24686 0 9.104V30.896C0 31.7531 0.694854 32.448 1.552 32.448H38.448C39.3051 32.448 40 31.7531 40 30.896V9.104C40 8.24686 39.3051 7.552 38.448 7.552Z" fill="url(#paint0_linear_8871_9164)"/>
<path d="M31.752 7.552H31.552V32.448H31.752V7.552Z" fill="#D3D3D3"/>
<path d="M26.4322 12.4559H17.5042L4.68018 20.3119V26.9279C4.68018 27.3519 5.02418 27.6879 5.44018 27.6879H26.4322C26.8562 27.6879 27.1922 27.3439 27.1922 26.9279V13.2159C27.1922 12.7919 26.8482 12.4559 26.4322 12.4559Z" fill="#2A2B2D"/>
<path d="M5.44018 12.4559C5.01618 12.4559 4.68018 12.7999 4.68018 13.2159V20.3039L17.5042 12.4559H5.44018Z" fill="#494949"/>
<path d="M35.912 28.0801C37.0651 28.0801 38 27.1452 38 25.9921C38 24.8389 37.0651 23.9041 35.912 23.9041C34.7588 23.9041 33.824 24.8389 33.824 25.9921C33.824 27.1452 34.7588 28.0801 35.912 28.0801Z" fill="#C6C6C6"/>
<path d="M38.952 12.824H32.8C32.6983 12.824 32.616 12.9064 32.616 13.008V15.456C32.616 15.5576 32.6983 15.64 32.8 15.64H38.952C39.0536 15.64 39.136 15.5576 39.136 15.456V13.008C39.136 12.9064 39.0536 12.824 38.952 12.824Z" fill="#2A2B2D"/>
<path d="M35.416 17.168H32.92C32.7521 17.168 32.616 17.3041 32.616 17.472V17.664C32.616 17.8319 32.7521 17.968 32.92 17.968H35.416C35.5839 17.968 35.72 17.8319 35.72 17.664V17.472C35.72 17.3041 35.5839 17.168 35.416 17.168Z" fill="#C6C6C6"/>
<path d="M38.832 17.168H36.336C36.1681 17.168 36.032 17.3041 36.032 17.472V17.664C36.032 17.8319 36.1681 17.968 36.336 17.968H38.832C38.9999 17.968 39.136 17.8319 39.136 17.664V17.472C39.136 17.3041 38.9999 17.168 38.832 17.168Z" fill="#C6C6C6"/>
<path d="M35.416 19.2161H32.92C32.7521 19.2161 32.616 19.3522 32.616 19.5201V19.7121C32.616 19.88 32.7521 20.0161 32.92 20.0161H35.416C35.5839 20.0161 35.72 19.88 35.72 19.7121V19.5201C35.72 19.3522 35.5839 19.2161 35.416 19.2161Z" fill="#C6C6C6"/>
<path d="M38.832 19.2161H36.336C36.1681 19.2161 36.032 19.3522 36.032 19.5201V19.7121C36.032 19.88 36.1681 20.0161 36.336 20.0161H38.832C38.9999 20.0161 39.136 19.88 39.136 19.7121V19.5201C39.136 19.3522 38.9999 19.2161 38.832 19.2161Z" fill="#C6C6C6"/>
<path d="M35.416 21.3679H32.92C32.7521 21.3679 32.616 21.504 32.616 21.6719V21.8639C32.616 22.0318 32.7521 22.1679 32.92 22.1679H35.416C35.5839 22.1679 35.72 22.0318 35.72 21.8639V21.6719C35.72 21.504 35.5839 21.3679 35.416 21.3679Z" fill="#C6C6C6"/>
<path d="M38.832 21.3679H36.336C36.1681 21.3679 36.032 21.504 36.032 21.6719V21.8639C36.032 22.0318 36.1681 22.1679 36.336 22.1679H38.832C38.9999 22.1679 39.136 22.0318 39.136 21.8639V21.6719C39.136 21.504 38.9999 21.3679 38.832 21.3679Z" fill="#C6C6C6"/>
<defs>
<linearGradient id="paint0_linear_8871_9164" x1="20" y1="20" x2="40.112" y2="20" gradientUnits="userSpaceOnUse">
<stop stop-color="white"/>
<stop offset="0.27" stop-color="#F6F6F6"/>
<stop offset="0.68" stop-color="#E1E1E1"/>
<stop offset="1" stop-color="#CCCCCC"/>
</linearGradient>
</defs>
</svg>
