<svg width="40" height="40" viewBox="0 0 40 40" fill="none" xmlns="http://www.w3.org/2000/svg">
<g clip-path="url(#clip0_8873_9611)">
<g clip-path="url(#clip1_8873_9611)">
<path d="M20 40C31.0457 40 40 31.0457 40 20C40 8.9543 31.0457 0 20 0C8.9543 0 0 8.9543 0 20C0 31.0457 8.9543 40 20 40Z" fill="url(#paint0_linear_8873_9611)"/>
<path d="M39.63 19.26C33.71 22.22 24.59 23.72 12.51 23.72C11 23.72 9.42 23.69 7.82 23.65C7.78 22.39 7.82 21.07 7.92 19.7C12.05 19.41 15.73 16.48 19.28 13.64C23.02 10.65 26.87 7.57 31.15 7.57C31.41 7.57 31.68 7.58 31.94 7.6L32.26 7.63C33.13 7.7 34.45 7.8 35.78 8.46L36.61 8.87C35.99 7.94 35.28 7.09 34.51 6.28C33.66 6.09 32.92 6.03 32.38 5.99L32.08 5.97C31.78 5.94 31.46 5.93 31.15 5.93C26.28 5.93 22.19 9.2 18.24 12.36C14.82 15.1 11.57 17.69 8.06 18.04C8.12 17.46 8.19 16.9 8.27 16.36C10.3 2.36 21 0.47 22.98 0.25C22.01 0.1 21.02 0 20 0C19.11 0 18.25 0.08 17.39 0.19C16.64 0.51 15.92 0.88 15.22 1.31C11.99 3.31 7.88 7.5 6.64 16.11C6.55 16.72 6.48 17.35 6.41 18.01C5.69 17.92 5.13 17.71 4.68 17.34C2.63 15.67 3.3 10.88 3.55 9.46L3.74 8.38C2.9 9.55 2.17 10.81 1.59 12.16C1.51 14.52 1.87 17.19 3.63 18.63C4.32 19.19 5.19 19.52 6.24 19.65V19.68H6.25C6.15 21.03 6.12 22.34 6.15 23.59H6.13V23.62C1.15 23.34 0.19 20.99 0.01 19.99H0C0 19.99 0 19.99 0 20C0 21.13 0.12 22.23 0.3 23.31C1.44 24.28 3.25 25.13 6.18 25.27H6.25C6.33 26.27 6.45 27.22 6.61 28.14H6.58V28.16C4.13 28.16 2.92 29.07 2.43 29.57C2.71 30.09 3.02 30.59 3.35 31.08L3.47 30.91L3.55 30.79C3.55 30.79 4.33 29.81 6.63 29.81C6.74 29.81 6.85 29.81 6.97 29.82C7.98 33.81 9.74 36.31 11.26 37.97C12.47 38.56 13.75 39.03 15.08 39.37L14.43 38.75L14.29 38.62C14.18 38.51 14.05 38.4 13.92 38.27C12.56 37.02 10.08 34.73 8.73 30.03C8.88 30.06 9.02 30.09 9.16 30.12C11.53 30.67 14.17 32.12 16.73 33.53C19.52 35.06 22.15 36.5 24.39 36.79C25.47 36.93 26.52 37 27.5 37C28.77 37 29.95 36.88 31.07 36.65C32.33 35.81 33.48 34.82 34.52 33.72L33.42 34.18L33.2 34.27C32.09 34.73 30.29 35.35 27.49 35.35C26.58 35.35 25.61 35.28 24.6 35.15C22.67 34.9 20.17 33.53 17.53 32.08C14.87 30.62 12.12 29.11 9.53 28.51C9.13 28.42 8.72 28.36 8.31 28.3C8.12 27.34 7.98 26.34 7.9 25.3C9.53 25.35 11.03 25.37 12.46 25.37C24.54 25.37 33.78 23.87 39.94 20.93C39.95 20.62 39.99 20.31 39.99 20C39.99 19.69 39.96 19.4 39.94 19.1L39.75 19.19L39.61 19.26H39.63Z" fill="#1D1E27"/>
</g>
</g>
<defs>
<linearGradient id="paint0_linear_8873_9611" x1="5.37" y1="6.37" x2="34.63" y2="33.63" gradientUnits="userSpaceOnUse">
<stop stop-color="#F58C02"/>
<stop offset="0.17" stop-color="#EC8601"/>
<stop offset="0.43" stop-color="#D77801"/>
<stop offset="0.74" stop-color="#B36100"/>
<stop offset="1" stop-color="#914B00"/>
</linearGradient>
<clipPath id="clip0_8873_9611">
<rect width="40" height="40" fill="white"/>
</clipPath>
<clipPath id="clip1_8873_9611">
<rect width="40" height="40" fill="white"/>
</clipPath>
</defs>
</svg>
