<svg width="40" height="40" viewBox="0 0 40 40" fill="none" xmlns="http://www.w3.org/2000/svg">
<g clip-path="url(#clip0_8873_9735)">
<g clip-path="url(#clip1_8873_9735)">
<path d="M20.0001 39.2001C18.9301 39.2001 17.9201 38.7801 17.1601 38.0301L9.56014 30.4301C8.80014 29.6701 8.39014 28.6601 8.39014 27.5901C8.39014 26.5201 8.81014 25.5101 9.56014 24.7501C10.3201 23.9901 11.3301 23.5701 12.4001 23.5701C13.3201 23.5701 14.2101 23.8901 14.9201 24.4601C15.0401 24.5501 15.1801 24.6001 15.3301 24.6001C15.4301 24.6001 15.5201 24.5801 15.6101 24.5401C15.8401 24.4301 15.9801 24.2001 15.9801 23.9501V21.0801C15.9801 18.9301 17.7301 17.1901 19.8701 17.1901H20.1201C21.1601 17.1901 22.1401 17.5901 22.8701 18.3301C23.6101 19.0701 24.0101 20.0401 24.0101 21.0801V23.9501C24.0101 24.2001 24.1501 24.4301 24.3801 24.5401C24.4701 24.5801 24.5601 24.6001 24.6601 24.6001C24.8101 24.6001 24.9501 24.5501 25.0701 24.4601C25.7801 23.8901 26.6801 23.5701 27.5901 23.5701C28.6601 23.5701 29.6701 23.9901 30.4301 24.7501C31.1901 25.5101 31.6101 26.5201 31.6101 27.5901C31.6101 28.6601 31.1901 29.6701 30.4301 30.4301L22.8301 38.0301C22.0701 38.7901 21.0601 39.2001 19.9901 39.2001H20.0001Z" fill="url(#paint0_linear_8873_9735)"/>
<path d="M20.1201 17.83C20.9901 17.83 21.8001 18.17 22.4101 18.78C23.0201 19.39 23.3601 20.21 23.3601 21.07V23.94C23.3601 24.44 23.6501 24.9 24.1001 25.11C24.2801 25.2 24.4701 25.24 24.6601 25.24C24.9501 25.24 25.2401 25.14 25.4801 24.95C26.0701 24.47 26.8201 24.21 27.5901 24.21C28.4901 24.21 29.3401 24.56 29.9701 25.19C30.6101 25.83 30.9501 26.67 30.9501 27.57C30.9501 28.47 30.6001 29.32 29.9701 29.95L22.3701 37.55C21.7301 38.19 20.8901 38.53 19.9901 38.53C19.0901 38.53 18.2401 38.18 17.6101 37.55L10.0101 29.95C8.70011 28.64 8.70011 26.5 10.0101 25.18C10.6401 24.55 11.4901 24.2 12.3901 24.2C13.1601 24.2 13.9101 24.46 14.5001 24.94C14.7401 25.13 15.0301 25.23 15.3201 25.23C15.5101 25.23 15.7001 25.19 15.8801 25.1C16.3301 24.88 16.6201 24.43 16.6201 23.93V21.06C16.6201 19.27 18.0801 17.82 19.8601 17.82H20.1101M20.1201 16.53H19.8701C17.3601 16.53 15.3301 18.57 15.3301 21.07V23.94C14.4801 23.25 13.4401 22.91 12.4001 22.91C11.2001 22.91 10.0101 23.37 9.10011 24.28C7.28011 26.1 7.28011 29.06 9.10011 30.88L16.7001 38.48C17.6101 39.39 18.8101 39.85 20.0001 39.85C21.1901 39.85 22.3901 39.39 23.3001 38.48L30.9001 30.88C32.7201 29.06 32.7201 26.1 30.9001 24.28C29.9901 23.37 28.7901 22.91 27.6001 22.91C26.5601 22.91 25.5201 23.25 24.6701 23.94V21.07C24.6701 19.86 24.2001 18.71 23.3401 17.86C22.4801 17 21.3401 16.53 20.1301 16.53H20.1201Z" fill="#FFE799"/>
<path d="M20.0001 20.1799C20.5137 20.1799 20.9301 19.7636 20.9301 19.2499C20.9301 18.7363 20.5137 18.3199 20.0001 18.3199C19.4864 18.3199 19.0701 18.7363 19.0701 19.2499C19.0701 19.7636 19.4864 20.1799 20.0001 20.1799Z" fill="#1D1E27"/>
<path d="M20 14.05C21.2206 14.05 22.21 13.0606 22.21 11.84C22.21 10.6195 21.2206 9.63 20 9.63C18.7795 9.63 17.79 10.6195 17.79 11.84C17.79 13.0606 18.7795 14.05 20 14.05Z" stroke="url(#paint1_linear_8873_9735)" stroke-miterlimit="10"/>
<path d="M20 18.96V13.38" stroke="url(#paint2_linear_8873_9735)" stroke-miterlimit="10" stroke-linecap="round"/>
<path d="M17.48 6.45996H22.57V8.52996C22.57 8.83996 22.32 9.07996 22.02 9.07996H18.04C17.73 9.07996 17.49 8.82996 17.49 8.52996V6.45996H17.48Z" fill="url(#paint3_linear_8873_9735)"/>
<path d="M20.03 1C20.88 1 21.57 1.69 21.57 2.54V5.9H18.48V2.54C18.48 1.69 19.17 1 20.02 1M20.03 0C18.62 0 17.49 1.14 17.49 2.54V6.9H22.58V2.54C22.58 1.13 21.44 0 20.04 0H20.03Z" fill="url(#paint4_linear_8873_9735)"/>
</g>
</g>
<defs>
<linearGradient id="paint0_linear_8873_9735" x1="12.2376" y1="30.0757" x2="30.7073" y2="25.5643" gradientUnits="userSpaceOnUse">
<stop stop-color="#FFC300"/>
<stop offset="0.31" stop-color="#FFBA00"/>
<stop offset="0.79" stop-color="#FFA500"/>
<stop offset="1" stop-color="#FF9900"/>
</linearGradient>
<linearGradient id="paint1_linear_8873_9735" x1="17.29" y1="11.84" x2="22.7" y2="11.84" gradientUnits="userSpaceOnUse">
<stop stop-color="white"/>
<stop offset="0.27" stop-color="#F6F6F6"/>
<stop offset="0.68" stop-color="#E1E1E1"/>
<stop offset="1" stop-color="#CCCCCC"/>
</linearGradient>
<linearGradient id="paint2_linear_8873_9735" x1="0" y1="0" x2="0" y2="0" gradientUnits="userSpaceOnUse">
<stop stop-color="white"/>
<stop offset="0.27" stop-color="#F6F6F6"/>
<stop offset="0.68" stop-color="#E1E1E1"/>
<stop offset="1" stop-color="#CCCCCC"/>
</linearGradient>
<linearGradient id="paint3_linear_8873_9735" x1="17.48" y1="7.76996" x2="22.57" y2="7.76996" gradientUnits="userSpaceOnUse">
<stop stop-color="white"/>
<stop offset="0.27" stop-color="#F6F6F6"/>
<stop offset="0.68" stop-color="#E1E1E1"/>
<stop offset="1" stop-color="#CCCCCC"/>
</linearGradient>
<linearGradient id="paint4_linear_8873_9735" x1="17.48" y1="3.45" x2="22.57" y2="3.45" gradientUnits="userSpaceOnUse">
<stop stop-color="white"/>
<stop offset="0.27" stop-color="#F6F6F6"/>
<stop offset="0.68" stop-color="#E1E1E1"/>
<stop offset="1" stop-color="#CCCCCC"/>
</linearGradient>
<clipPath id="clip0_8873_9735">
<rect width="40" height="40" fill="white"/>
</clipPath>
<clipPath id="clip1_8873_9735">
<rect width="25.84" height="40.5" fill="white" transform="translate(7.08008)"/>
</clipPath>
</defs>
</svg>
