<svg width="40" height="40" viewBox="0 0 40 40" fill="none" xmlns="http://www.w3.org/2000/svg">
<path d="M35.48 24.2466C35.48 33.6366 28.01 38.8066 19.47 38.8066C10.93 38.8066 4.53003 33.6466 4.53003 24.2466C4.53003 14.8466 11.45 7.23657 20 7.23657C28.55 7.23657 35.48 14.8566 35.48 24.2466Z" fill="#FFE4C0"/>
<path d="M19.9999 28.2466C19.5499 28.2466 19.0699 28.5666 19.0099 28.4966C18.9899 28.4566 19.0899 28.3166 19.1499 28.2266C19.2499 28.0866 19.5599 27.6466 20.0299 27.6666C20.1199 27.6666 20.2099 27.6866 20.2999 27.7266C20.5999 27.8466 20.7799 28.0966 20.8699 28.2266C20.9599 28.3466 21.0199 28.4466 20.9999 28.4766C20.9399 28.5466 20.4499 28.2366 20.0099 28.2366L19.9999 28.2466Z" fill="#1D1E27"/>
<path d="M13.67 21.7066C12.71 21.8666 11.72 22.3466 11.57 22.3066H11.56C11.51 22.2666 11.7 22.1066 11.82 21.9966C12.02 21.8166 12.62 21.2866 13.63 21.1366C13.83 21.1066 14.03 21.0966 14.23 21.0966C14.89 21.1066 15.32 21.2966 15.53 21.3866C15.73 21.4766 15.89 21.5466 15.86 21.5866C15.86 21.5866 15.86 21.5866 15.85 21.5866C15.72 21.6766 14.62 21.5466 13.67 21.7066Z" fill="#331C00"/>
<path d="M25.52 21.7066C26.48 21.8666 27.47 22.3466 27.62 22.3066H27.63C27.68 22.2666 27.49 22.1066 27.37 21.9966C27.17 21.8166 26.57 21.2866 25.56 21.1366C25.36 21.1066 25.16 21.0966 24.96 21.0966C24.3 21.1066 23.87 21.2966 23.66 21.3866C23.46 21.4766 23.3 21.5466 23.33 21.5866C23.33 21.5866 23.33 21.5866 23.34 21.5866C23.47 21.6766 24.57 21.5466 25.52 21.7066Z" fill="#331C00"/>
<path d="M24.4901 27.8365C25.4014 27.8365 26.1401 26.95 26.1401 25.8565C26.1401 24.7629 25.4014 23.8765 24.4901 23.8765C23.5788 23.8765 22.8401 24.7629 22.8401 25.8565C22.8401 26.95 23.5788 27.8365 24.4901 27.8365Z" fill="#1D1E27"/>
<path d="M15.3199 27.8365C16.2312 27.8365 16.9699 26.95 16.9699 25.8565C16.9699 24.7629 16.2312 23.8765 15.3199 23.8765C14.4087 23.8765 13.6699 24.7629 13.6699 25.8565C13.6699 26.95 14.4087 27.8365 15.3199 27.8365Z" fill="#1D1E27"/>
<path d="M2.99009 23.5765C3.44009 23.1565 3.89009 22.7265 4.34009 22.3065H7.88009C9.22009 22.3065 10.4401 21.5265 10.9901 20.3065C11.5601 19.0565 12.1301 17.7965 12.7001 16.5465L12.7601 18.9765C12.8101 20.8265 14.3201 22.3065 16.1801 22.3065H36.9301C38.4001 13.7765 35.2101 6.03655 29.4301 3.12655C26.3201 1.55655 23.1201 1.72655 21.0501 2.08655C19.8601 1.63655 17.8301 1.04655 15.3101 1.22655C15.3101 1.22655 10.1801 1.57655 6.19009 5.55655C1.96009 9.77655 0.780088 16.8065 2.99009 23.5765Z" fill="url(#paint0_linear_8926_8645)"/>
<path d="M35.1101 22.8866C35.4501 21.3366 36.3801 20.2166 37.5001 20.0166C37.6301 19.9966 38.4001 19.8666 38.9901 20.3066C40.7801 21.6166 40.0901 27.2466 37.6401 28.0166C37.3001 28.1266 36.4501 28.2866 35.1101 27.4566V22.8866Z" fill="#FFE4C0"/>
<path d="M4.88995 22.8866C4.54995 21.3366 3.61995 20.2166 2.49995 20.0166C2.36995 19.9966 1.59995 19.8666 1.00995 20.3066C-0.780049 21.6166 -0.0900493 27.2466 2.35995 28.0166C2.69995 28.1266 3.54995 28.2866 4.88995 27.4566V22.8866Z" fill="#FFE4C0"/>
<path d="M14.8399 25.5765C15.0609 25.5765 15.2399 25.3974 15.2399 25.1765C15.2399 24.9556 15.0609 24.7765 14.8399 24.7765C14.619 24.7765 14.4399 24.9556 14.4399 25.1765C14.4399 25.3974 14.619 25.5765 14.8399 25.5765Z" fill="white"/>
<path d="M23.9501 25.4765C24.171 25.4765 24.35 25.2974 24.35 25.0765C24.35 24.8556 24.171 24.6765 23.9501 24.6765C23.7291 24.6765 23.55 24.8556 23.55 25.0765C23.55 25.2974 23.7291 25.4765 23.9501 25.4765Z" fill="white"/>
<path d="M17.6101 31.5565C18.0101 31.7665 18.8601 32.1565 20.0001 32.1565C21.1401 32.1565 21.9901 31.7765 22.3901 31.5565" stroke="#1D1E27" stroke-miterlimit="10" stroke-linecap="round"/>
<defs>
<linearGradient id="paint0_linear_8926_8645" x1="3.90009" y1="7.67655" x2="36.1701" y2="22.5365" gradientUnits="userSpaceOnUse">
<stop stop-color="#331C00"/>
<stop offset="1" stop-color="#593100"/>
</linearGradient>
</defs>
</svg>
