<svg width="40" height="40" viewBox="0 0 40 40" fill="none" xmlns="http://www.w3.org/2000/svg">
<g clip-path="url(#clip0_8883_9102)">
<g clip-path="url(#clip1_8883_9102)">
<path d="M25.8853 5.08038C25.8853 5.08038 28.6554 0.153063 31.3546 4.11412e-05C31.6082 -0.0101603 31.801 0.255078 31.7097 0.499914L30.0253 5.16199C29.9948 5.2334 29.9948 5.31501 30.0253 5.38642L30.3906 6.6412C30.4819 6.94725 30.1673 7.21249 29.8832 7.06967L25.9055 5.09058L25.8853 5.08038Z" fill="url(#paint0_linear_8883_9102)"/>
<path d="M34.1451 15.0268C35.5251 14.5269 37.5038 13.772 38.8128 11.7929C39.8376 10.2423 39.9797 8.66104 40 7.98774C40.0507 6.18208 39.4318 4.75387 38.9041 3.86634C38.6606 3.45828 38.0619 3.48889 37.8691 3.92755L36.0528 8.15096C35.931 8.4366 35.6063 8.57942 35.3222 8.46721L25.104 4.75387C24.7083 4.61105 24.3024 4.91709 24.3227 5.33535C24.4241 7.27363 24.343 11.9765 21.5728 15.0676C18.0112 19.0461 1.12632 34.0627 1.12632 34.0627C1.12632 34.0627 -1.35972 36.6539 1.02485 39.0512C3.40943 41.4486 6.03754 38.6126 6.03754 38.6126L24.688 18.1994C24.8503 18.026 25.1141 17.771 25.4693 17.4853C28.138 15.3634 30.4008 16.3938 34.135 15.037L34.1451 15.0268ZM2.25266 37.6536C1.7453 37.1436 1.7453 36.3172 2.25266 35.8072C2.76001 35.2971 3.58193 35.2971 4.08929 35.8072C4.59664 36.3172 4.59664 37.1436 4.08929 37.6536C3.58193 38.1637 2.76001 38.1637 2.25266 37.6536Z" fill="url(#paint1_linear_8883_9102)"/>
<path d="M26.3928 9.88527C26.2304 9.72205 26.1696 9.48742 26.2304 9.26298L26.9001 6.96765C27.0016 6.631 27.3466 6.43717 27.6815 6.53919C28.0163 6.6412 28.2091 6.98805 28.1077 7.3247L27.4379 9.62004C27.3365 9.95668 26.9915 10.1505 26.6566 10.0485C26.5551 10.0179 26.4638 9.95668 26.3826 9.88527H26.3928Z" fill="url(#paint2_linear_8883_9102)"/>
<path d="M27.925 10.5177C27.7627 10.3545 27.7018 10.1199 27.7627 9.89543L28.4324 7.6001C28.5338 7.26345 28.8788 7.06962 29.2137 7.17163C29.5486 7.27365 29.7414 7.6205 29.6399 7.95715L28.9702 10.2525C28.8687 10.5891 28.5237 10.783 28.1888 10.6809C28.0874 10.6503 27.996 10.5891 27.9149 10.5177H27.925Z" fill="url(#paint3_linear_8883_9102)"/>
<path d="M29.4367 11.1707C29.2744 11.0074 29.2135 10.7728 29.2744 10.5484L29.9441 8.25305C30.0456 7.9164 30.3906 7.72257 30.7254 7.82459C31.0603 7.9266 31.2531 8.27345 31.1516 8.6101L30.4819 10.9054C30.3804 11.2421 30.0354 11.4359 29.7006 11.3339C29.5991 11.3033 29.5078 11.2421 29.4266 11.1707H29.4367Z" fill="url(#paint4_linear_8883_9102)"/>
</g>
</g>
<defs>
<linearGradient id="paint0_linear_8883_9102" x1="28.7775" y1="1.94885" x2="28.9588" y2="7.01989" gradientUnits="userSpaceOnUse">
<stop stop-color="white"/>
<stop offset="0.63" stop-color="#DADADA"/>
<stop offset="1" stop-color="#C4C4C4"/>
</linearGradient>
<linearGradient id="paint1_linear_8883_9102" x1="13.9969" y1="15.4381" x2="24.7377" y2="26.1217" gradientUnits="userSpaceOnUse">
<stop stop-color="white"/>
<stop offset="0.63" stop-color="#DADADA"/>
<stop offset="1" stop-color="#C4C4C4"/>
</linearGradient>
<linearGradient id="paint2_linear_8883_9102" x1="27.1992" y1="8.23905" x2="27.9364" y2="7.16068" gradientUnits="userSpaceOnUse">
<stop stop-color="white"/>
<stop offset="0.63" stop-color="#DADADA"/>
<stop offset="1" stop-color="#C4C4C4"/>
</linearGradient>
<linearGradient id="paint3_linear_8883_9102" x1="28.5481" y1="9.14791" x2="29.2781" y2="8.07671" gradientUnits="userSpaceOnUse">
<stop stop-color="white"/>
<stop offset="0.63" stop-color="#DADADA"/>
<stop offset="1" stop-color="#C4C4C4"/>
</linearGradient>
<linearGradient id="paint4_linear_8883_9102" x1="29.8825" y1="10.0569" x2="30.6125" y2="8.98568" gradientUnits="userSpaceOnUse">
<stop stop-color="white"/>
<stop offset="0.63" stop-color="#DADADA"/>
<stop offset="1" stop-color="#C4C4C4"/>
</linearGradient>
<clipPath id="clip0_8883_9102">
<rect width="40" height="40" fill="white"/>
</clipPath>
<clipPath id="clip1_8883_9102">
<rect width="40" height="40" fill="white"/>
</clipPath>
</defs>
</svg>
