<svg width="40" height="40" viewBox="0 0 40 40" fill="none" xmlns="http://www.w3.org/2000/svg">
<g clip-path="url(#clip0_8873_9668)">
<path opacity="0.8" d="M32.6701 17.1101L30.7501 10.1201C30.3601 8.69008 29.0601 7.71008 27.5801 7.71008H24.8801L10.5401 16.4901L10.3701 17.1101H32.6601H32.6701Z" fill="#2A2B2D"/>
<path d="M19.3301 7.70007C15.5701 7.70007 12.2701 10.2101 11.2801 13.8401L10.5601 16.4801L24.8901 7.70007H19.3201H19.3301Z" fill="#494949"/>
<path d="M12.2701 34.06C14.7112 34.06 16.6901 32.0811 16.6901 29.64C16.6901 27.1989 14.7112 25.22 12.2701 25.22C9.829 25.22 7.8501 27.1989 7.8501 29.64C7.8501 32.0811 9.829 34.06 12.2701 34.06Z" fill="#1D1E27"/>
<path d="M31.15 34.06C33.5911 34.06 35.57 32.0811 35.57 29.64C35.57 27.1989 33.5911 25.22 31.15 25.22C28.7089 25.22 26.73 27.1989 26.73 29.64C26.73 32.0811 28.7089 34.06 31.15 34.06Z" fill="#1D1E27"/>
<path d="M3.66991 29.64C2.28991 29.64 1.15991 28.52 1.15991 27.13L3.66991 29.64Z" fill="#494949"/>
<path d="M36.3299 17.1101C35.3999 17.1101 34.5899 16.4901 34.3499 15.6001L32.8299 10.0601C32.1599 7.63006 29.9499 5.94006 27.4299 5.94006H19.7299C14.7799 5.94006 10.4499 9.25006 9.13992 14.0201L8.70992 15.6001C8.45992 16.4901 7.64992 17.1101 6.72992 17.1101C3.65992 17.1101 1.16992 19.6001 1.16992 22.6701V23.3401V24.8001V24.9801C1.16992 26.7501 2.59992 28.1801 4.36992 28.1801H5.31992C5.69992 28.1801 6.00992 28.4901 6.00992 28.8701V28.9501C6.00992 29.3301 6.31992 29.6401 6.69992 29.6401H36.8499C38.6199 29.6401 40.0499 28.2101 40.0499 26.4401V20.8201C40.0499 18.7701 38.3899 17.1101 36.3399 17.1101H36.3299ZM19.9099 17.1101H11.2899C10.8299 17.1101 10.4999 16.6701 10.6199 16.2301L11.1199 14.4101C12.2099 10.4501 15.7999 7.71006 19.9099 7.71006C20.2899 7.71006 20.5999 8.02006 20.5999 8.40006V16.4201C20.5999 16.8001 20.2899 17.1101 19.9099 17.1101ZM21.8799 16.4101V8.40006C21.8799 8.02006 22.1899 7.71006 22.5699 7.71006H27.2399C28.9199 7.71006 30.3999 8.84006 30.8499 10.4601L32.4299 16.2401C32.5499 16.6801 32.2199 17.1201 31.7599 17.1201H22.5699C22.1899 17.1201 21.8799 16.8101 21.8799 16.4301V16.4101Z" fill="url(#paint0_linear_8873_9668)"/>
<path d="M1.15991 25.76H40.0499V27.37C40.0499 28.63 39.0299 29.64 37.7799 29.64H3.43991C2.17991 29.64 1.16991 28.62 1.16991 27.37V25.76H1.15991Z" fill="#939393"/>
<path d="M0.57 21.91H1.16V25.76H0.57C0.25 25.76 0 25.5 0 25.19V22.48C0 22.16 0.26 21.91 0.57 21.91Z" fill="#FF9100"/>
<path d="M19.7201 18.0601H17.5101C17.3996 18.0601 17.3101 18.1496 17.3101 18.2601V18.6201C17.3101 18.7305 17.3996 18.8201 17.5101 18.8201H19.7201C19.8305 18.8201 19.9201 18.7305 19.9201 18.6201V18.2601C19.9201 18.1496 19.8305 18.0601 19.7201 18.0601Z" fill="#1D1E27"/>
<path d="M31.7899 18.0601H29.5799C29.4694 18.0601 29.3799 18.1496 29.3799 18.2601V18.6201C29.3799 18.7305 29.4694 18.8201 29.5799 18.8201H31.7899C31.9003 18.8201 31.9899 18.7305 31.9899 18.6201V18.2601C31.9899 18.1496 31.9003 18.0601 31.7899 18.0601Z" fill="#1D1E27"/>
</g>
<defs>
<linearGradient id="paint0_linear_8873_9668" x1="1.15992" y1="17.7901" x2="40.0499" y2="17.7901" gradientUnits="userSpaceOnUse">
<stop stop-color="#AD0017"/>
<stop offset="0.19" stop-color="#B50018"/>
<stop offset="0.49" stop-color="#CA001B"/>
<stop offset="0.85" stop-color="#EE0020"/>
<stop offset="1" stop-color="#FF0023"/>
</linearGradient>
<clipPath id="clip0_8873_9668">
<rect width="40" height="40" fill="white"/>
</clipPath>
</defs>
</svg>
