<svg width="40" height="40" viewBox="0 0 40 40" fill="none" xmlns="http://www.w3.org/2000/svg">
<g clip-path="url(#clip0_8807_9111)">
<path d="M34.4276 2.544L26.8596 0C23.7476 1.08 20.0036 1.08 20.0036 1.08C20.0036 1.08 16.2596 1.08 13.1476 0L5.57959 2.544C11.7396 5.688 7.41959 19.136 7.41959 19.136L6.99559 34.6C6.94759 36.496 8.28359 38.144 10.1476 38.472C12.9716 38.968 16.2836 39.328 19.9956 39.328C22.7236 39.328 26.0676 39.136 29.8436 38.472C31.7076 38.144 33.0436 36.496 32.9956 34.6L32.5716 19.136C32.5716 19.136 28.2516 5.688 34.4116 2.544H34.4276Z" fill="url(#paint0_linear_8807_9111)"/>
<path d="M34.4277 2.54407C28.2677 5.68807 32.5877 19.1361 32.5877 19.1361C35.3238 19.0241 37.2198 18.3841 38.4758 17.7041C39.8358 16.9681 40.3878 15.3041 39.7318 13.9041C37.9638 10.1201 36.1957 6.32807 34.4277 2.54407Z" fill="#FFD2D2"/>
<path d="M5.57978 2.54407C3.81178 6.32807 2.04378 10.1201 0.27578 13.9041C-0.38022 15.3041 0.17178 16.9681 1.53178 17.7041C2.78778 18.3841 4.68378 19.0241 7.41978 19.1361C7.41978 19.1361 11.7398 5.68807 5.57978 2.54407Z" fill="#FFD2D2"/>
<path d="M26.8597 0L24.6437 6.592C24.4437 7.176 23.8037 7.472 23.2277 7.248L20.0037 5.952C20.0037 5.952 25.1877 2.056 26.8597 0Z" fill="#FFD2D2"/>
<path d="M13.1477 0L15.3637 6.592C15.5637 7.176 16.2037 7.472 16.7797 7.248L20.0037 5.952C20.0037 5.952 14.8197 2.056 13.1477 0Z" fill="#FFD2D2"/>
<path d="M20.0036 10.072C20.4675 10.072 20.8436 9.69589 20.8436 9.23197C20.8436 8.76805 20.4675 8.39197 20.0036 8.39197C19.5397 8.39197 19.1636 8.76805 19.1636 9.23197C19.1636 9.69589 19.5397 10.072 20.0036 10.072Z" fill="#FFD2D2"/>
<path d="M20.0036 12.824C20.4675 12.824 20.8436 12.448 20.8436 11.984C20.8436 11.5201 20.4675 11.144 20.0036 11.144C19.5397 11.144 19.1636 11.5201 19.1636 11.984C19.1636 12.448 19.5397 12.824 20.0036 12.824Z" fill="#FFD2D2"/>
<path d="M13.1477 0C13.8197 0.872 14.8277 2.08 16.1877 3.4C17.9717 5.12 18.8837 5.976 20.0037 5.952C20.5397 5.944 21.1877 5.744 23.4437 3.6C24.9077 2.216 26.0437 0.96 26.8597 0C25.2757 0.512 22.9157 1.08 20.0037 1.08C17.0917 1.08 14.7237 0.512 13.1477 0Z" fill="#8E6868"/>
</g>
<defs>
<linearGradient id="paint0_linear_8807_9111" x1="13.7876" y1="9.88" x2="30.9316" y2="33.08" gradientUnits="userSpaceOnUse">
<stop stop-color="#FFC0C0"/>
<stop offset="1" stop-color="#FFA3A3"/>
</linearGradient>
<clipPath id="clip0_8807_9111">
<rect width="40" height="40" fill="white"/>
</clipPath>
</defs>
</svg>
