<svg width="59" height="74" viewBox="0 0 59 74" fill="none" xmlns="http://www.w3.org/2000/svg">
  <path d="M40.5813 73.1L27.3513 48.89H16.8213V73.19H0.441289V0.739996H29.5113C35.0913 0.739996 39.9813 1.73 44.1813 3.71C48.3813 5.69 51.6213 8.48 53.9013 12.08C56.1813 15.62 57.3213 19.7 57.3213 24.32C57.3213 29.18 56.0913 33.5 53.6313 37.28C51.1713 41.06 47.7513 43.97 43.3713 46.01L58.5813 73.1H40.5813ZM16.8213 14.69V34.85H27.4413C31.8213 34.85 35.1213 33.95 37.3413 32.15C39.6213 30.29 40.7613 27.71 40.7613 24.41C40.7613 21.29 39.6513 18.89 37.4313 17.21C35.2713 15.53 31.9413 14.69 27.4413 14.69H16.8213Z" fill="white"/>
</svg>
